<svg width="73" height="134" viewBox="0 0 73 134" fill="none" xmlns="http://www.w3.org/2000/svg">
<ellipse cx="36.4684" cy="101.348" rx="36.4684" ry="32.6519" fill="#0A0A0A"/>
<path d="M27.2366 64.8577C26.2747 69.7346 19.3655 72.681 18.6582 77.6013C16.7731 90.7146 59.937 88.0947 54.7999 75.8831C52.1021 69.4701 48.0151 72.0886 43.7746 66.576C40.6445 62.5069 39.662 56.7167 40.8062 51.7122C42.1436 45.8625 47.1833 44.0853 48.0151 38.1426C48.9392 31.5395 49.8179 24.4211 43.7746 21.6046C40.4723 20.0656 37.6186 19.8146 34.4454 21.6046C28.8202 24.7778 39.4383 34.0458 34.4454 38.1426C30.3487 41.504 24.0554 33.9031 20.8758 38.1426C18.4912 41.3221 19.707 44.5211 20.8758 48.3198C22.1327 52.4045 26.1665 53.0873 27.2366 57.2248C27.9829 60.1107 27.8134 61.9332 27.2366 64.8577Z" fill="#0A0A0A"/>
<circle cx="30.9557" cy="5.51266" r="5.51266" fill="#0A0A0A"/>
<ellipse cx="25.4431" cy="92.019" rx="3.39241" ry="5.51266" fill="#D9D9D9"/>
<ellipse cx="48.3417" cy="92.019" rx="3.39241" ry="5.51266" fill="#D9D9D9"/>
</svg>
