<svg width="196" height="81" viewBox="0 0 196 81" fill="none" xmlns="http://www.w3.org/2000/svg">
<path d="M176.951 0C187.131 0.000160391 195.383 8.25279 195.383 18.4326V49.9102C195.383 60.09 187.131 68.3426 176.951 68.3428C175.951 68.3428 175.14 69.1538 175.14 70.1543V78.4424C175.14 80.0784 173.282 81.0224 171.961 80.0579L156.435 68.7272C156.093 68.4774 155.68 68.3428 155.256 68.3428H18.4326C8.2527 68.3428 0 60.0901 0 49.9102V18.4326C0 8.2527 8.2527 0 18.4326 0H176.951Z" fill="#DDDDFF"/>
<path d="M13.0071 22.0879H14.3059L13.595 25.916H11.8587L13.0071 22.0879ZM15.8919 22.0879H17.1907L16.4798 25.916H14.7434L15.8919 22.0879ZM23.9703 21.5547C24.8499 21.5547 25.6383 21.6937 26.3355 21.9717C27.0374 22.2497 27.5865 22.6416 27.983 23.1475C28.3795 23.6533 28.5777 24.2344 28.5777 24.8906C28.5777 25.4967 28.4137 26.0368 28.0855 26.5107C27.762 26.9847 27.3085 27.3675 26.7252 27.6592C26.1464 27.9463 25.4788 28.1286 24.7223 28.2061V30.4688H29.6441V31.7129H18.3512V30.4688H23.2184V28.2061C22.4664 28.1286 21.801 27.9463 21.2223 27.6592C20.6435 27.3675 20.1923 26.9847 19.8688 26.5107C19.5452 26.0368 19.3857 25.4967 19.3902 24.8906C19.3857 24.2344 19.5794 23.6533 19.9713 23.1475C20.3678 22.6416 20.9146 22.2497 21.6119 21.9717C22.3092 21.6937 23.0953 21.5547 23.9703 21.5547ZM23.9703 22.7852C23.3688 22.7806 22.8333 22.8649 22.3639 23.0381C21.8945 23.2067 21.5276 23.4528 21.2633 23.7764C21.0035 24.0954 20.8759 24.4668 20.8805 24.8906C20.8759 25.3281 21.0035 25.7087 21.2633 26.0322C21.5276 26.3512 21.8945 26.5973 22.3639 26.7705C22.8333 26.9391 23.3688 27.0234 23.9703 27.0234C24.581 27.0234 25.121 26.9391 25.5904 26.7705C26.0644 26.5973 26.4313 26.3512 26.691 26.0322C26.9553 25.7087 27.0875 25.3281 27.0875 24.8906C27.0875 24.4622 26.9553 24.0885 26.691 23.7695C26.4267 23.4505 26.0576 23.2067 25.5836 23.0381C25.1142 22.8649 24.5764 22.7806 23.9703 22.7852ZM40.3613 24.7402H31.83V21.0215H33.3202V23.5234H40.3613V24.7402ZM41.6601 26.9004H30.3671V25.6836H41.6601V26.9004ZM40.2792 30.9199H33.2519V31.877H40.6894V33.0664H31.7206V29.8125H38.7753V28.9375H31.707V27.7617H40.2792V30.9199ZM53.676 28.459H42.4104V27.2422H53.676V28.459ZM52.4045 32.9707H43.8049V29.375H45.3225V31.7402H52.4045V32.9707ZM48.0295 21.2539C48.9228 21.2539 49.7043 21.3542 50.3743 21.5547C51.0442 21.7552 51.5614 22.0446 51.926 22.4229C52.2952 22.7965 52.482 23.2409 52.4866 23.7559C52.482 24.2754 52.2952 24.7266 51.926 25.1094C51.5614 25.4876 51.0442 25.7793 50.3743 25.9844C49.7043 26.1849 48.9228 26.2852 48.0295 26.2852C47.1363 26.2852 46.3525 26.1849 45.678 25.9844C45.008 25.7793 44.4885 25.4876 44.1194 25.1094C43.7548 24.7266 43.5725 24.2754 43.5725 23.7559C43.5725 23.2409 43.7548 22.7965 44.1194 22.4229C44.4885 22.0446 45.008 21.7552 45.678 21.5547C46.3525 21.3542 47.1363 21.2539 48.0295 21.2539ZM48.0295 22.4707C47.1272 22.4707 46.4208 22.5846 45.9104 22.8125C45.4045 23.0358 45.1539 23.3503 45.1584 23.7559C45.1539 24.0293 45.2655 24.264 45.4934 24.46C45.7258 24.6559 46.0562 24.804 46.4846 24.9043C46.9176 25 47.4325 25.0456 48.0295 25.041C48.9364 25.0501 49.6428 24.943 50.1487 24.7197C50.6591 24.4919 50.9143 24.1706 50.9143 23.7559C50.9143 23.3457 50.6591 23.029 50.1487 22.8057C49.6428 22.5824 48.9364 22.4707 48.0295 22.4707ZM61.0692 21.7598C61.6252 21.7598 62.1265 21.9079 62.5731 22.2041C63.0197 22.5003 63.3843 22.9242 63.6669 23.4756C63.9494 24.0225 64.1249 24.6673 64.1932 25.4102H66.5516V20.8574H68.0555V33.2305H66.5516V26.6406H64.2138C64.1591 27.4245 63.9927 28.1081 63.7147 28.6914C63.4367 29.2702 63.0699 29.7168 62.6141 30.0312C62.1584 30.3411 61.6434 30.4961 61.0692 30.4961C60.4494 30.4961 59.9003 30.3184 59.4218 29.9629C58.9432 29.6074 58.5695 29.0993 58.3007 28.4385C58.0318 27.7777 57.8973 27.0052 57.8973 26.1211C57.8973 25.2461 58.0318 24.4805 58.3007 23.8242C58.5695 23.1634 58.9432 22.6553 59.4218 22.2998C59.9048 21.9398 60.454 21.7598 61.0692 21.7598ZM61.0692 23.127C60.7274 23.127 60.4266 23.2477 60.1669 23.4893C59.9071 23.7262 59.7066 24.0703 59.5653 24.5215C59.424 24.9681 59.3557 25.5013 59.3602 26.1211C59.3557 26.7454 59.424 27.2832 59.5653 27.7344C59.7066 28.1855 59.9071 28.5319 60.1669 28.7734C60.4266 29.0104 60.7274 29.1289 61.0692 29.1289C61.411 29.1289 61.7095 29.0104 61.9647 28.7734C62.2245 28.5319 62.425 28.1855 62.5663 27.7344C62.7121 27.2832 62.7873 26.7454 62.7919 26.1211C62.7873 25.5013 62.7121 24.9658 62.5663 24.5146C62.425 24.0635 62.2245 23.7194 61.9647 23.4824C61.7095 23.2454 61.411 23.127 61.0692 23.127ZM80.509 32.9707H71.7043V29.0605H73.2219V31.7402H80.509V32.9707ZM80.1809 29.8125H78.6906V25.4102H76.7902V24.1797H78.6906V20.8711H80.1809V29.8125ZM73.1672 23.0586H71.4582V26.7637C72.1008 26.7318 72.7023 26.6543 73.2629 26.5312L73.3859 27.7617C72.9257 27.8665 72.495 27.9326 72.0939 27.96C71.6975 27.9827 71.1802 27.9941 70.5422 27.9941H69.968V21.8281H73.1672V23.0586ZM77.2551 23.0586H75.3V26.7705C75.7876 26.7614 76.2046 26.7386 76.551 26.7021C76.8973 26.6611 77.246 26.5996 77.5969 26.5176L77.7473 27.748C77.2824 27.8529 76.8244 27.9212 76.3732 27.9531C75.9221 27.9805 75.2818 27.9941 74.4523 27.9941H73.7961V21.8281H77.2551V23.0586ZM95.285 33.2305H93.7538V20.8574H95.285V33.2305ZM88.6268 21.7598C89.2466 21.7598 89.798 21.9398 90.2811 22.2998C90.7687 22.6553 91.1515 23.1634 91.4295 23.8242C91.7075 24.4805 91.8488 25.2461 91.8534 26.1211C91.8488 27.0007 91.7075 27.7708 91.4295 28.4316C91.1561 29.0924 90.7756 29.6029 90.2879 29.9629C89.8003 30.3184 89.2466 30.4961 88.6268 30.4961C88.0025 30.4961 87.4465 30.3184 86.9588 29.9629C86.4712 29.6029 86.0884 29.0924 85.8104 28.4316C85.537 27.7708 85.4002 27.0007 85.4002 26.1211C85.4002 25.2461 85.537 24.4805 85.8104 23.8242C86.0884 23.1634 86.4712 22.6553 86.9588 22.2998C87.4465 21.9398 88.0025 21.7598 88.6268 21.7598ZM88.6268 23.127C88.2759 23.127 87.966 23.2454 87.6971 23.4824C87.4328 23.7194 87.2277 24.0635 87.0819 24.5146C86.936 24.9658 86.8631 25.5013 86.8631 26.1211C86.8631 26.7454 86.936 27.2832 87.0819 27.7344C87.2277 28.1855 87.4328 28.5319 87.6971 28.7734C87.966 29.0104 88.2759 29.1289 88.6268 29.1289C88.9732 29.1289 89.2785 29.0104 89.5428 28.7734C89.8071 28.5319 90.0122 28.1855 90.1581 27.7344C90.3039 27.2832 90.3768 26.7454 90.3768 26.1211C90.3768 25.5013 90.3039 24.9681 90.1581 24.5215C90.0122 24.0703 89.8071 23.7262 89.5428 23.4893C89.2785 23.2477 88.9732 23.127 88.6268 23.127ZM100.356 21.7598C100.975 21.7598 101.527 21.9398 102.01 22.2998C102.493 22.6553 102.871 23.1634 103.145 23.8242C103.423 24.4805 103.564 25.2461 103.569 26.1211C103.564 27.0052 103.423 27.7777 103.145 28.4385C102.871 29.0993 102.493 29.6074 102.01 29.9629C101.527 30.3184 100.975 30.4961 100.356 30.4961C99.7313 30.4961 99.1753 30.3184 98.6877 29.9629C98.2 29.6029 97.8195 29.0924 97.5461 28.4316C97.2726 27.7708 97.1382 27.0007 97.1427 26.1211C97.1382 25.2507 97.2726 24.485 97.5461 23.8242C97.8195 23.1634 98.2 22.6553 98.6877 22.2998C99.1753 21.9398 99.7313 21.7598 100.356 21.7598ZM100.356 23.127C100.009 23.127 99.7039 23.2477 99.4396 23.4893C99.1753 23.7262 98.9702 24.0703 98.8244 24.5215C98.6785 24.9681 98.6056 25.5013 98.6056 26.1211C98.6056 26.7454 98.6785 27.2832 98.8244 27.7344C98.9702 28.1855 99.1753 28.5319 99.4396 28.7734C99.7039 29.0104 100.009 29.1289 100.356 29.1289C100.707 29.1289 101.014 29.0104 101.278 28.7734C101.543 28.5319 101.746 28.1855 101.887 27.7344C102.033 27.2832 102.106 26.7454 102.106 26.1211C102.106 25.5013 102.033 24.9658 101.887 24.5146C101.746 24.0635 101.543 23.7194 101.278 23.4824C101.014 23.2454 100.707 23.127 100.356 23.127ZM108.545 25.082H106.713V27.4609H108.545V28.7051H106.713V33.2168H105.195V20.8574H106.713V23.8105H108.545V25.082ZM119.385 33.2168H117.854V20.8574H119.385V33.2168ZM115.694 22.1699C115.694 24.1341 115.249 25.859 114.361 27.3447C113.472 28.8258 111.998 30.054 109.938 31.0293L109.145 29.8125C110.735 29.056 111.932 28.1514 112.734 27.0986C113.541 26.0413 114.012 24.7995 114.149 23.373H109.774V22.1699H115.694ZM132.372 27.6113H121.079V26.4629H132.372V27.6113ZM131.005 31.166H123.923V32.0273H131.374V33.0801H122.405V30.1816H129.501V29.416H122.391V28.3496H131.005V31.166ZM130.977 23.9199H124.018V24.7266H131.196V25.7656H122.514V22.9355H129.46V22.1836H122.473V21.1309H130.977V23.9199ZM146.956 33.2168H145.412V26.4492H143.607V25.1367H145.412V20.8574H146.956V33.2168ZM139.396 24.248C139.396 25.0775 139.467 25.859 139.608 26.5928C139.749 27.3265 140.011 27.9805 140.394 28.5547C140.768 27.9896 141.023 27.3424 141.16 26.6133C141.296 25.8796 141.365 25.0911 141.365 24.248V21.8828H142.828V24.248C142.818 25.3509 142.946 26.3512 143.21 27.249C143.475 28.1468 143.967 28.8646 144.687 29.4023L143.73 30.4824C142.955 29.8945 142.406 28.9808 142.082 27.7412C141.75 29.0446 141.187 29.9902 140.394 30.5781C139.601 29.9993 139.034 29.0651 138.692 27.7754C138.373 28.974 137.851 29.8581 137.126 30.4277L136.101 29.4023C136.807 28.8509 137.293 28.1286 137.557 27.2354C137.826 26.3376 137.965 25.3418 137.974 24.248V21.8828H139.396V24.248ZM151.371 22.0195H156.703V21.0488H158.207V25.1641H154.761V26.1074H159.67V27.3105H148.404V26.1074H153.258V25.1641H149.867V21.0488H151.371V22.0195ZM156.703 24.0293V23.127H151.371V24.0293H156.703ZM158.261 31.084H151.234V31.9453H158.603V33.1074H149.744V30.0176H156.771V29.2109H149.73V28.0898H158.261V31.084ZM170.291 25.793H172V27.0508H170.291V33.2168H168.76V20.8574H170.291V25.793ZM164.139 22.1562C164.134 23.3457 164.057 24.4144 163.906 25.3623C163.76 26.3057 163.492 27.2126 163.1 28.083C162.708 28.9489 162.156 29.7669 161.445 30.5371L160.256 29.6758C160.821 29.0742 161.274 28.4521 161.616 27.8096C161.963 27.1624 162.218 26.4834 162.382 25.7725C162.546 25.0615 162.649 24.2708 162.69 23.4004H160.748V22.1562H164.139ZM167.557 22.1562C167.552 23.4232 167.484 24.5693 167.352 25.5947C167.224 26.6156 166.971 27.6159 166.593 28.5957C166.215 29.571 165.675 30.4824 164.973 31.3301L163.756 30.4961C164.321 29.8216 164.77 29.113 165.103 28.3701C165.44 27.6227 165.684 26.8503 165.834 26.0527C165.984 25.2507 166.078 24.3665 166.114 23.4004H164.549V22.1562H167.557ZM174.555 28.9648C174.56 28.4043 174.614 27.9508 174.719 27.6045C174.824 27.2581 174.97 26.9824 175.157 26.7773C175.348 26.5677 175.603 26.3626 175.922 26.1621C176.246 25.957 176.496 25.7337 176.674 25.4922C176.857 25.2461 176.948 24.9635 176.948 24.6445C176.948 24.3939 176.888 24.1751 176.77 23.9883C176.651 23.7969 176.49 23.6488 176.285 23.5439C176.084 23.4391 175.858 23.3867 175.608 23.3867C175.371 23.3867 175.15 23.4368 174.945 23.5371C174.74 23.6374 174.571 23.79 174.439 23.9951C174.311 24.2002 174.241 24.4486 174.227 24.7402H172.518C172.532 24.1478 172.677 23.6442 172.955 23.2295C173.233 22.8102 173.605 22.4958 174.07 22.2861C174.535 22.0719 175.052 21.9648 175.621 21.9648C176.232 21.9648 176.772 22.0742 177.242 22.293C177.716 22.5072 178.082 22.8148 178.342 23.2158C178.607 23.6169 178.739 24.084 178.739 24.6172C178.739 25.1458 178.613 25.6016 178.363 25.9844C178.117 26.3672 177.759 26.6999 177.289 26.9824C177.016 27.1465 176.797 27.3174 176.633 27.4951C176.474 27.6683 176.355 27.8711 176.278 28.1035C176.2 28.3359 176.159 28.623 176.155 28.9648V29.0879H174.555V28.9648ZM175.403 32.1094C175.211 32.1094 175.034 32.0615 174.87 31.9658C174.705 31.8701 174.576 31.7402 174.48 31.5762C174.384 31.4121 174.336 31.2344 174.336 31.043C174.336 30.8561 174.384 30.6829 174.48 30.5234C174.576 30.3594 174.705 30.2295 174.87 30.1338C175.034 30.0381 175.211 29.9902 175.403 29.9902C175.585 29.9902 175.756 30.0381 175.915 30.1338C176.079 30.2295 176.209 30.3594 176.305 30.5234C176.405 30.6829 176.455 30.8561 176.455 31.043C176.455 31.2344 176.405 31.4121 176.305 31.5762C176.209 31.7402 176.079 31.8701 175.915 31.9658C175.756 32.0615 175.585 32.1094 175.403 32.1094ZM67.5505 44.873H65.7185V51.1895H64.2009V38.8574H65.7185V43.6289H67.5505V44.873ZM57.9802 46.8828C59.8532 46.8509 61.6078 46.6641 63.2439 46.3223L63.4079 47.6074C61.6078 47.9629 59.6436 48.1406 57.5154 48.1406H56.4763V40.0605H57.9802V46.8828ZM79.3477 45.6113H68.0547V44.4629H79.3477V45.6113ZM77.9805 49.166H70.8985V50.0273H78.3496V51.0801H69.3809V48.1816H76.4766V47.416H69.3672V46.3496H77.9805V49.166ZM77.9532 41.9199H70.9942V42.7266H78.1719V43.7656H69.4903V40.9355H76.4356V40.1836H69.4493V39.1309H77.9532V41.9199ZM94.6159 46.6504H83.3229V45.4473H88.2038V44.4082H84.7721V39.1582H93.2624V40.3477H86.2897V41.1953H92.9616V42.3301H86.2897V43.2461H93.3581V44.4082H89.7214V45.4473H94.6159V46.6504ZM93.194 51.2168H91.6628V48.7285H84.5944V47.5254H93.194V51.2168ZM108.613 42.7402H100.081V39.0215H101.572V41.5234H108.613V42.7402ZM109.911 44.8047H104.99V45.8848H108.531V48.9609H101.503V49.9316H108.941V51.1074H99.972V47.8945H107.027V47.0332H99.9583V45.8848H103.499V44.8047H98.6185V43.5742H109.911V44.8047ZM121.011 51.2305H119.494V44.6543H117.375V43.4102H119.494V38.8574H121.011V51.2305ZM116.664 44.4629H112.617V47.0605C113.633 47.056 114.522 47.0286 115.283 46.9785C116.048 46.9284 116.819 46.8327 117.593 46.6914L117.716 47.9355C116.846 48.0905 115.982 48.1953 115.126 48.25C114.269 48.3047 113.259 48.332 112.097 48.332H111.113V43.2324H115.173V41.168H111.072V39.9375H116.664V44.4629ZM124.824 41.5098H128.037V39.8555H129.555V45.502H127.203V47.4844C128.393 47.4206 129.386 47.334 130.184 47.2246L130.293 48.3457C129.5 48.4824 128.668 48.585 127.798 48.6533C126.932 48.7217 126.128 48.7673 125.385 48.79C124.646 48.8083 123.771 48.8197 122.76 48.8242L122.541 47.5664H123.184L125.686 47.5322V45.502H123.32V39.8555H124.824V41.5098ZM128.037 44.2852V42.6719H124.824V44.2852H128.037ZM132.412 43.875H134.203V45.1465H132.412V51.2168H130.894V38.8574H132.412V43.875ZM137.114 47.0879H135.569L135.405 40.1016H137.264L137.114 47.0879ZM136.348 50.1094C136.157 50.1094 135.979 50.0615 135.815 49.9658C135.651 49.8701 135.521 49.7402 135.425 49.5762C135.329 49.4121 135.282 49.2344 135.282 49.043C135.282 48.8561 135.329 48.6829 135.425 48.5234C135.521 48.3594 135.651 48.2295 135.815 48.1338C135.979 48.0381 136.157 47.9902 136.348 47.9902C136.53 47.9902 136.701 48.0381 136.861 48.1338C137.025 48.2295 137.155 48.3594 137.25 48.5234C137.351 48.6829 137.401 48.8561 137.401 49.043C137.401 49.2344 137.351 49.4121 137.25 49.5762C137.155 49.7402 137.025 49.8701 136.861 49.9658C136.701 50.0615 136.53 50.1094 136.348 50.1094Z" fill="#0A0A0A"/>
</svg>
