<svg width="92" height="177" viewBox="0 0 92 177" fill="none" xmlns="http://www.w3.org/2000/svg">
<path d="M38.2171 120.801C16.3362 120.801 0.0092392 105.71 0.0092392 91.9475C-0.136635 87.5757 1.32209 73.5862 17.0764 67.0285C36.5711 58.914 42.1557 52.6018 41.2805 46.4814C40.4052 40.3609 31.8303 39.5036 29.4648 35.1148C26.4014 29.4316 27.2767 18.9394 35.1538 16.7535C44.0185 14.2935 46.0943 22.4368 45.6566 24.6226C45.3852 25.9783 43.9062 30.7431 46.9695 31.6175C50.0328 32.4918 64.6398 29.4316 66.6623 37.7379C70.6009 53.9134 50.9081 52.1647 53.0962 60.471C55.2843 68.7773 65.1287 73.0729 70.1633 81.4553C72.789 85.8271 73.6032 91.561 72.789 98.068C71.4761 108.56 60.9733 120.801 38.2171 120.801Z" fill="url(#paint0_linear_221_2846)"/>
<path d="M42.2459 117.621C20.365 117.621 4.03805 102.53 4.03805 88.7675C3.89217 84.3957 5.3509 70.4061 21.1052 63.8485C40.5999 55.7339 46.1845 49.4218 45.3093 43.3013C44.434 37.1809 35.8592 36.3236 33.4936 31.9348C30.4302 26.2516 31.3055 15.7594 39.1826 13.5735C48.0474 11.1135 50.1231 19.2567 49.6855 21.4426C49.4141 22.7982 47.935 27.5631 50.9983 28.4374C54.0616 29.3118 68.6686 26.2516 70.6911 34.5579C74.6297 50.7333 54.9369 48.9846 57.125 57.291C59.3131 65.5973 69.1575 69.8929 74.1921 78.2753C76.8178 82.6471 77.632 88.381 76.8178 94.8879C75.5049 105.38 65.0021 117.621 42.2459 117.621Z" fill="url(#paint1_linear_221_2846)" fill-opacity="0.8"/>
<ellipse cx="5.68904" cy="5.68327" rx="5.68904" ry="5.68327" transform="matrix(-1 0 0 1 61.3659 1.74872)" fill="url(#paint2_linear_221_2846)"/>
<ellipse cx="5.68904" cy="5.68327" rx="5.68904" ry="5.68327" transform="matrix(-1 0 0 1 62.2414 0)" fill="url(#paint3_linear_221_2846)" fill-opacity="0.8"/>
<path d="M37.7551 113.806C30.021 113.806 23.7512 120.076 23.7512 127.81V145.268C23.7512 146.241 23.8513 147.192 24.0407 148.109C24.1339 148.56 24.0206 149.034 23.7088 149.373L8.01196 166.437C6.94719 167.595 8.38143 169.331 9.71918 168.504L28.4841 156.902C28.9608 156.607 29.5665 156.642 30.0338 156.952C31.3927 157.852 32.9176 158.521 34.5529 158.903C35.5066 159.127 36.0805 160.194 35.6111 161.054L30.5565 170.311C29.7875 171.72 31.6751 173.058 32.7491 171.865L49.3097 153.483C49.3415 153.448 49.3225 153.392 49.2759 153.383C49.2323 153.374 49.212 153.324 49.2374 153.287C50.8266 151.016 51.759 148.251 51.759 145.268V127.81C51.759 120.076 45.4892 113.806 37.7551 113.806Z" fill="url(#paint4_linear_221_2846)"/>
<path d="M24.4732 118.688L52.1966 120.801C65.3251 131.293 69.1381 123.524 80.6418 133.042C88.972 139.934 89.6483 152.323 87.0227 158.583C87.0227 158.583 78.7843 154.24 78.2919 157.828C76.3902 171.688 67.303 173.533 67.303 173.533C64.9356 158.048 61.1441 152.54 46.9807 147.805C37.5436 142.541 33.016 137.63 30.4594 126.568C30.4594 126.568 32.5584 146.784 27.1179 147.805C21.6774 148.825 29.0028 169.327 29.0028 169.327C19.4909 164.926 13.1561 161.865 12.3733 151.84C11.5723 141.582 16.8527 130.8 24.4732 118.688Z" fill="url(#paint5_linear_221_2846)"/>
<rect width="35.0095" height="7.86914" rx="2.70588" transform="matrix(-1 0 0 1 55.2399 118.037)" fill="#114EB7"/>
<ellipse cx="7.00189" cy="6.99479" rx="7.00189" ry="6.99479" transform="matrix(-1 0 0 1 57.8654 89.1836)" fill="#1C4B85"/>
<ellipse cx="5.68904" cy="5.68327" rx="5.68904" ry="5.68327" transform="matrix(-1 0 0 1 29.8581 90.9323)" fill="#1C4B85"/>
<defs>
<linearGradient id="paint0_linear_221_2846" x1="36.5459" y1="16.2953" x2="36.5459" y2="120.801" gradientUnits="userSpaceOnUse">
<stop stop-color="#B6F9F0"/>
<stop offset="1" stop-color="#FAFFFE"/>
</linearGradient>
<linearGradient id="paint1_linear_221_2846" x1="40.5747" y1="13.1153" x2="40.5747" y2="117.621" gradientUnits="userSpaceOnUse">
<stop stop-color="#B6F9F0"/>
<stop offset="1" stop-color="#FAFFFE"/>
</linearGradient>
<linearGradient id="paint2_linear_221_2846" x1="5.68904" y1="0" x2="5.68904" y2="11.3665" gradientUnits="userSpaceOnUse">
<stop stop-color="#B6F9F0"/>
<stop offset="1" stop-color="#FAFFFE"/>
</linearGradient>
<linearGradient id="paint3_linear_221_2846" x1="5.68904" y1="0" x2="5.68904" y2="11.3665" gradientUnits="userSpaceOnUse">
<stop stop-color="#B6F9F0"/>
<stop offset="1" stop-color="#FAFFFE"/>
</linearGradient>
<linearGradient id="paint4_linear_221_2846" x1="29.7001" y1="113.806" x2="29.7001" y2="174.266" gradientUnits="userSpaceOnUse">
<stop stop-color="#F6FFFD"/>
<stop offset="1" stop-color="#B6F9ED"/>
</linearGradient>
<linearGradient id="paint5_linear_221_2846" x1="54.3322" y1="121.093" x2="47.3829" y2="171.844" gradientUnits="userSpaceOnUse">
<stop stop-color="#1258CF"/>
<stop offset="1" stop-color="#07111F"/>
</linearGradient>
</defs>
</svg>
