<svg width="195" height="48" viewBox="0 0 195 48" fill="none" xmlns="http://www.w3.org/2000/svg">
<path d="M177.5 0C187.165 0 195 7.83505 195 17.5C195 27.165 187.165 35 177.5 35H176.948C175.844 35 174.948 35.8954 174.948 37V45.0996C174.948 46.7357 173.091 47.6796 171.769 46.7151L156.244 35.3845C155.901 35.1346 155.488 35 155.065 35H17.5C7.83512 34.9999 0 27.1649 0 17.5C4.12342e-05 7.83513 7.83514 0.000119793 17.5 0H177.5Z" fill="#DDDDFF"/>
<path d="M22.6439 22.9492H21.7416V12.5312H22.6439V22.9492ZM22.0111 17.5586H19.972V16.7734H22.0111V17.5586ZM20.2416 22.4102H19.3744V12.7656H20.2416V22.4102ZM15.1908 19.8086H14.2767V13.8086H15.1908V19.8086ZM14.9212 19.4336C15.5541 19.4336 16.1654 19.4082 16.7552 19.3574C17.3451 19.3066 17.9603 19.2188 18.6009 19.0938L18.7181 19.9141C18.0306 20.0312 17.3802 20.1172 16.767 20.1719C16.1537 20.2266 15.5384 20.2539 14.9212 20.2539H14.2767V19.4336H14.9212ZM34.8727 13.7383H28.0992V12.9883H34.8727V13.7383ZM36.4312 17.1719H26.8922V16.4336H36.4312V17.1719ZM35.1773 13.6562C35.1773 14.1875 35.1617 14.6777 35.1305 15.127C35.0992 15.5762 35.0211 16.0859 34.8961 16.6562L33.9937 16.5508C34.1109 15.9883 34.1852 15.4922 34.2164 15.0625C34.2477 14.6328 34.2633 14.1641 34.2633 13.6562V12.9883H35.1773V13.6562ZM35.2125 20.8516H28.9664V22.3281H28.0406V20.125H34.2984V18.9648H28.0289V18.2266H35.2125V20.8516ZM35.482 22.832H28.0406V22.082H35.482V22.832ZM46.6355 18.7773H37.1433V18.0273H46.6355V18.7773ZM45.5808 22.7266H38.3737V21.9531H45.5808V22.7266ZM39.2995 22.1875H38.3737V19.6914H39.2995V22.1875ZM41.8894 12.9062C42.6316 12.8984 43.28 12.9766 43.8347 13.1406C44.3894 13.3047 44.8171 13.543 45.1179 13.8555C45.4187 14.168 45.5691 14.5391 45.5691 14.9688C45.5691 15.3984 45.4187 15.7676 45.1179 16.0762C44.8171 16.3848 44.3894 16.623 43.8347 16.791C43.28 16.959 42.6316 17.043 41.8894 17.043C41.1394 17.043 40.487 16.959 39.9323 16.791C39.3777 16.623 38.9499 16.3848 38.6491 16.0762C38.3484 15.7676 38.198 15.3984 38.198 14.9688C38.198 14.5391 38.3484 14.168 38.6491 13.8555C38.9499 13.543 39.3777 13.3047 39.9323 13.1406C40.487 12.9766 41.1394 12.8984 41.8894 12.9062ZM41.8894 13.6445C41.3347 13.6445 40.8503 13.6973 40.4362 13.8027C40.0222 13.9082 39.7038 14.0605 39.4812 14.2598C39.2585 14.459 39.1472 14.6953 39.1472 14.9688C39.1472 15.2344 39.2585 15.4668 39.4812 15.666C39.7038 15.8652 40.0222 16.0195 40.4362 16.1289C40.8503 16.2383 41.3347 16.293 41.8894 16.293C42.4441 16.293 42.9284 16.2383 43.3425 16.1289C43.7566 16.0195 44.0749 15.8652 44.2976 15.666C44.5202 15.4668 44.6316 15.2344 44.6316 14.9688C44.6316 14.6953 44.5202 14.459 44.2976 14.2598C44.0749 14.0605 43.7566 13.9082 43.3425 13.8027C42.9284 13.6973 42.4441 13.6445 41.8894 13.6445ZM59.8252 21.6133H50.2861V20.8516H59.8252V21.6133ZM55.4775 21.0859H54.5752V18.332H55.4775V21.0859ZM52.3369 15.1562H57.7509V13.2695H58.6533V18.6016H51.4111V13.2695H52.3369V15.1562ZM57.7509 17.8516V15.9062H52.3369V17.8516H57.7509ZM65.7755 14.1133H61.1231V13.3398H65.7755V14.1133ZM63.6309 18.2617H62.7169V15.6484H63.6309V18.2617ZM66.3145 13.8906C66.3067 14.4609 66.2891 14.9688 66.2618 15.4141C66.2345 15.8594 66.1622 16.3789 66.045 16.9727L65.1192 16.9023C65.2442 16.293 65.3223 15.7734 65.3536 15.3438C65.3848 14.9141 65.4044 14.4297 65.4122 13.8906V13.3398H66.3145V13.8906ZM68.7052 20.3711H67.7677V12.5312H68.7052V20.3711ZM70.2286 16.7148H68.2833V15.9297H70.2286V16.7148ZM69.045 22.7266H62.0841V21.9531H69.045V22.7266ZM63.0098 22.1992H62.0841V19.668H63.0098V22.1992ZM60.4786 17.9453C61.8067 17.9375 63.0001 17.9121 64.0587 17.8691C65.1173 17.8262 66.1192 17.7383 67.0645 17.6055L67.1231 18.2852C66.1544 18.4492 65.1192 18.5605 64.0177 18.6191C62.9161 18.6777 61.7677 18.707 60.5723 18.707L60.4786 17.9453ZM78.9328 18.8125H78.0187V12.5312H78.9328V18.8125ZM80.5031 16.0938H78.675V15.3086H80.5031V16.0938ZM78.9328 22.8086H72.3586V19.4102H78.9328V22.8086ZM73.2609 22.0586H78.0187V20.1484H73.2609V22.0586ZM77.0227 14.4062H70.8117V13.6445H77.0227V14.4062ZM73.9172 14.9219C74.4172 14.9219 74.8547 14.998 75.2297 15.1504C75.6047 15.3027 75.8977 15.5195 76.1086 15.8008C76.3195 16.082 76.425 16.4062 76.425 16.7734C76.425 17.1484 76.3195 17.4766 76.1086 17.7578C75.8977 18.0391 75.6047 18.2559 75.2297 18.4082C74.8547 18.5605 74.4172 18.6367 73.9172 18.6367C73.4172 18.6367 72.9777 18.5605 72.5988 18.4082C72.2199 18.2559 71.927 18.0391 71.7199 17.7578C71.5129 17.4766 71.4094 17.1484 71.4094 16.7734C71.4094 16.4062 71.5129 16.082 71.7199 15.8008C71.927 15.5195 72.2199 15.3027 72.5988 15.1504C72.9777 14.998 73.4172 14.9219 73.9172 14.9219ZM73.9172 15.6367C73.5969 15.6367 73.3117 15.6836 73.0617 15.7773C72.8117 15.8711 72.6203 16.0039 72.4875 16.1758C72.3547 16.3477 72.2883 16.5469 72.2883 16.7734C72.2883 17.0078 72.3547 17.2109 72.4875 17.3828C72.6203 17.5547 72.8098 17.6875 73.0559 17.7812C73.302 17.875 73.5891 17.9258 73.9172 17.9336C74.2453 17.9258 74.5324 17.875 74.7785 17.7812C75.0246 17.6875 75.216 17.5547 75.3527 17.3828C75.4895 17.2109 75.5578 17.0078 75.5578 16.7734C75.5578 16.5469 75.4875 16.3477 75.3469 16.1758C75.2062 16.0039 75.0129 15.8711 74.7668 15.7773C74.5207 15.6836 74.2375 15.6367 73.9172 15.6367ZM74.3742 14.0312H73.4602V12.4492H74.3742V14.0312ZM87.3089 17.3594H85.305V16.5977H87.3089V17.3594ZM89.9691 22.9492H89.0784V12.5312H89.9691V22.9492ZM87.8714 22.4219H86.9925V12.7539H87.8714V22.4219ZM83.4066 13.4102C83.8597 13.4102 84.2542 13.5566 84.5902 13.8496C84.9261 14.1426 85.1878 14.5625 85.3753 15.1094C85.5628 15.6562 85.6566 16.2969 85.6566 17.0312C85.6566 17.7578 85.5628 18.3945 85.3753 18.9414C85.1878 19.4883 84.9261 19.9102 84.5902 20.207C84.2542 20.5039 83.8597 20.6523 83.4066 20.6523C82.9613 20.6523 82.5687 20.5039 82.2288 20.207C81.889 19.9102 81.6273 19.4883 81.4437 18.9414C81.2601 18.3945 81.1683 17.7578 81.1683 17.0312C81.1683 16.2969 81.2601 15.6562 81.4437 15.1094C81.6273 14.5625 81.889 14.1426 82.2288 13.8496C82.5687 13.5566 82.9613 13.4102 83.4066 13.4102ZM83.4066 14.2773C83.1253 14.2773 82.8812 14.3887 82.6741 14.6113C82.4671 14.834 82.3089 15.1523 82.1995 15.5664C82.0902 15.9805 82.0355 16.4688 82.0355 17.0312C82.0355 17.5859 82.0902 18.0703 82.1995 18.4844C82.3089 18.8984 82.4691 19.2168 82.68 19.4395C82.8909 19.6621 83.1331 19.7734 83.4066 19.7734C83.6878 19.7734 83.932 19.6621 84.139 19.4395C84.346 19.2168 84.5062 18.8984 84.6195 18.4844C84.7327 18.0703 84.7894 17.5859 84.7894 17.0312C84.7894 16.4688 84.7327 15.9805 84.6195 15.5664C84.5062 15.1523 84.346 14.834 84.139 14.6113C83.932 14.3887 83.6878 14.2773 83.4066 14.2773ZM99.4702 16.8438H96.5405V16.0938H99.4702V16.8438ZM94.7827 15.332C94.7827 16.082 94.6557 16.8184 94.4018 17.541C94.1479 18.2637 93.8002 18.9043 93.3588 19.4629C92.9174 20.0215 92.4233 20.4492 91.8764 20.7461L91.2787 20.0078C91.7866 19.7578 92.2495 19.3867 92.6674 18.8945C93.0854 18.4023 93.4155 17.8418 93.6577 17.2129C93.8998 16.584 94.0209 15.957 94.0209 15.332V13.4336H94.7827V15.332ZM94.9584 15.332C94.9584 15.9492 95.0795 16.5586 95.3217 17.1602C95.5639 17.7617 95.892 18.2949 96.3061 18.7598C96.7202 19.2246 97.1772 19.5742 97.6772 19.8086L97.1264 20.5586C96.5717 20.2695 96.0737 19.8574 95.6323 19.3223C95.1909 18.7871 94.8432 18.1719 94.5893 17.4766C94.3354 16.7812 94.2084 16.0664 94.2084 15.332V13.4336H94.9584V15.332ZM99.9272 22.9727H99.0131V12.5312H99.9272V22.9727ZM108.125 18.7539H107.211V17.4297H108.125V18.7539ZM112.566 19.5273H111.64V12.543H112.566V19.5273ZM114.125 16.4688H112.179V15.6953H114.125V16.4688ZM104.386 18.4609C105.222 18.4609 105.984 18.4551 106.672 18.4434C107.359 18.4316 108.086 18.4004 108.851 18.3496C109.617 18.2988 110.332 18.2266 110.996 18.1328L111.078 18.8008C110.086 18.9727 109.062 19.084 108.007 19.1348C106.953 19.1855 105.781 19.2109 104.492 19.2109L104.386 18.4609ZM112.566 22.9492H111.64V20.7812H105.664V20.043H112.566V22.9492ZM110.679 14.1953H104.644V13.4922H110.679V14.1953ZM107.656 14.5938C108.148 14.5938 108.578 14.6562 108.945 14.7812C109.312 14.9062 109.597 15.084 109.8 15.3145C110.004 15.5449 110.105 15.8164 110.105 16.1289C110.105 16.4414 110.004 16.7148 109.8 16.9492C109.597 17.1836 109.312 17.3652 108.945 17.4941C108.578 17.623 108.148 17.6875 107.656 17.6875C107.172 17.6875 106.746 17.623 106.379 17.4941C106.011 17.3652 105.726 17.1836 105.523 16.9492C105.32 16.7148 105.218 16.4414 105.218 16.1289C105.218 15.8164 105.32 15.5449 105.523 15.3145C105.726 15.084 106.011 14.9062 106.379 14.7812C106.746 14.6562 107.172 14.5938 107.656 14.5938ZM107.656 15.25C107.343 15.2422 107.07 15.2734 106.836 15.3438C106.601 15.4141 106.42 15.5156 106.291 15.6484C106.162 15.7812 106.097 15.9414 106.097 16.1289C106.097 16.3086 106.162 16.4668 106.291 16.6035C106.42 16.7402 106.601 16.8457 106.836 16.9199C107.07 16.9941 107.343 17.0312 107.656 17.0312C107.976 17.0312 108.254 16.9941 108.488 16.9199C108.722 16.8457 108.904 16.7402 109.033 16.6035C109.162 16.4668 109.226 16.3086 109.226 16.1289C109.226 15.9414 109.162 15.7812 109.033 15.6484C108.904 15.5156 108.722 15.4141 108.488 15.3438C108.254 15.2734 107.976 15.2422 107.656 15.25ZM108.125 13.8555H107.211V12.4492H108.125V13.8555ZM123.286 20.1602H122.372V12.543H123.286V20.1602ZM123.614 22.7266H116.559V21.9531H123.614V22.7266ZM117.473 22.2109H116.559V19.3867H117.473V22.2109ZM117.661 13.2695C118.177 13.2695 118.643 13.377 119.061 13.5918C119.479 13.8066 119.805 14.1094 120.04 14.5C120.274 14.8906 120.391 15.332 120.391 15.8242C120.391 16.3242 120.274 16.7676 120.04 17.1543C119.805 17.541 119.479 17.8438 119.061 18.0625C118.643 18.2812 118.177 18.3906 117.661 18.3906C117.145 18.3906 116.68 18.2812 116.266 18.0625C115.852 17.8438 115.526 17.541 115.288 17.1543C115.05 16.7676 114.93 16.3242 114.93 15.8242C114.93 15.332 115.05 14.8906 115.288 14.5C115.526 14.1094 115.852 13.8066 116.266 13.5918C116.68 13.377 117.145 13.2695 117.661 13.2695ZM117.661 14.0781C117.317 14.0781 117.005 14.1523 116.723 14.3008C116.442 14.4492 116.223 14.6562 116.067 14.9219C115.911 15.1875 115.833 15.4883 115.833 15.8242C115.833 16.1602 115.911 16.4629 116.067 16.7324C116.223 17.002 116.442 17.2109 116.723 17.3594C117.005 17.5078 117.317 17.582 117.661 17.582C118.005 17.582 118.315 17.5078 118.593 17.3594C118.87 17.2109 119.089 17.002 119.249 16.7324C119.409 16.4629 119.489 16.1602 119.489 15.8242C119.489 15.4883 119.409 15.1875 119.249 14.9219C119.089 14.6562 118.87 14.4492 118.593 14.3008C118.315 14.1523 118.005 14.0781 117.661 14.0781ZM133.08 18.2617H132.166V12.4961H133.08V18.2617ZM134.662 15.7891H132.682V15.0273H134.662V15.7891ZM133.08 21.1094H127.361V22.3867H126.459V20.4297H132.166V19.4922H126.435V18.8008H133.08V21.1094ZM133.467 22.832H126.459V22.1289H133.467V22.832ZM131.17 14.2188H124.959V13.4805H131.17V14.2188ZM128.064 14.6875C128.564 14.6875 129.004 14.7559 129.383 14.8926C129.762 15.0293 130.055 15.2266 130.262 15.4844C130.469 15.7422 130.572 16.0469 130.572 16.3984C130.572 16.7422 130.469 17.043 130.262 17.3008C130.055 17.5586 129.762 17.7578 129.383 17.8984C129.004 18.0391 128.564 18.1094 128.064 18.1094C127.564 18.1094 127.123 18.0391 126.74 17.8984C126.357 17.7578 126.064 17.5586 125.861 17.3008C125.658 17.043 125.557 16.7422 125.557 16.3984C125.557 16.0469 125.658 15.7422 125.861 15.4844C126.064 15.2266 126.357 15.0293 126.74 14.8926C127.123 14.7559 127.564 14.6875 128.064 14.6875ZM128.064 15.3672C127.744 15.3672 127.459 15.4102 127.209 15.4961C126.959 15.582 126.768 15.7031 126.635 15.8594C126.502 16.0156 126.435 16.1953 126.435 16.3984C126.435 16.6016 126.502 16.7812 126.635 16.9375C126.768 17.0938 126.957 17.2129 127.203 17.2949C127.449 17.377 127.736 17.418 128.064 17.418C128.393 17.418 128.68 17.377 128.926 17.2949C129.172 17.2129 129.363 17.0938 129.5 16.9375C129.637 16.7812 129.705 16.6016 129.705 16.3984C129.705 16.1875 129.637 16.0059 129.5 15.8535C129.363 15.7012 129.172 15.582 128.926 15.4961C128.68 15.4102 128.393 15.3672 128.064 15.3672ZM128.521 13.9961H127.607V12.4258H128.521V13.9961ZM143.164 13.5039C143.164 14.1367 142.967 14.7168 142.572 15.2441C142.178 15.7715 141.656 16.207 141.008 16.5508C140.36 16.8945 139.672 17.1289 138.945 17.2539L138.57 16.5039C139.203 16.418 139.811 16.2285 140.393 15.9355C140.975 15.6426 141.447 15.2832 141.811 14.8574C142.174 14.4316 142.356 13.9805 142.356 13.5039V12.9062H143.164V13.5039ZM143.305 13.5039C143.305 13.9727 143.488 14.4219 143.856 14.8516C144.223 15.2812 144.699 15.6426 145.285 15.9355C145.871 16.2285 146.477 16.418 147.102 16.5039L146.727 17.2539C146 17.1289 145.315 16.8926 144.67 16.5449C144.026 16.1973 143.504 15.7598 143.106 15.2324C142.707 14.7051 142.508 14.1289 142.508 13.5039V12.9062H143.305V13.5039ZM143.258 22.9492H142.356V18.9766H143.258V22.9492ZM147.57 19.1758H138.078V18.4023H147.57V19.1758ZM154.584 19.5273C154.584 19.9805 154.489 20.4238 154.297 20.8574C154.106 21.291 153.832 21.6777 153.477 22.0176C153.121 22.3574 152.698 22.6211 152.205 22.8086L151.737 22.1289C152.166 21.9648 152.539 21.7441 152.856 21.4668C153.172 21.1895 153.418 20.8809 153.594 20.541C153.77 20.2012 153.858 19.8633 153.858 19.5273V18.9531H154.584V19.5273ZM154.748 19.5273C154.748 19.8789 154.821 20.2285 154.965 20.5762C155.11 20.9238 155.325 21.2383 155.61 21.5195C155.895 21.8008 156.241 22.0234 156.647 22.1875L156.26 22.8906C155.776 22.7031 155.37 22.4336 155.041 22.082C154.713 21.7305 154.469 21.334 154.309 20.8926C154.149 20.4512 154.069 19.9961 154.069 19.5273V18.9531H154.748V19.5273ZM158.44 19.5273C158.44 19.9492 158.358 20.3809 158.194 20.8223C158.03 21.2637 157.784 21.668 157.455 22.0352C157.127 22.4023 156.729 22.6875 156.26 22.8906L155.862 22.1875C156.26 22.0078 156.602 21.7676 156.887 21.4668C157.172 21.166 157.387 20.8438 157.532 20.5C157.676 20.1562 157.748 19.832 157.748 19.5273V18.9531H158.44V19.5273ZM158.651 19.5273C158.651 19.8867 158.737 20.2363 158.909 20.5762C159.08 20.916 159.327 21.2227 159.647 21.4961C159.967 21.7695 160.342 21.9805 160.772 22.1289L160.315 22.8086C159.815 22.6289 159.385 22.373 159.026 22.041C158.666 21.709 158.393 21.3262 158.205 20.8926C158.018 20.459 157.924 20.0039 157.924 19.5273V18.9531H158.651V19.5273ZM159.823 18.4961H158.909V12.543H159.823V18.4961ZM154.198 13.1523C154.721 13.1523 155.19 13.2539 155.604 13.457C156.018 13.6602 156.342 13.9473 156.577 14.3184C156.811 14.6895 156.928 15.1133 156.928 15.5898C156.928 16.0586 156.811 16.4766 156.577 16.8438C156.342 17.2109 156.018 17.4961 155.604 17.6992C155.19 17.9023 154.721 18.0039 154.198 18.0039C153.674 18.0039 153.205 17.9023 152.791 17.6992C152.377 17.4961 152.053 17.2109 151.819 16.8438C151.584 16.4766 151.467 16.0586 151.467 15.5898C151.467 15.1133 151.584 14.6895 151.819 14.3184C152.053 13.9473 152.377 13.6602 152.791 13.457C153.205 13.2539 153.674 13.1523 154.198 13.1523ZM154.198 13.9375C153.846 13.9297 153.532 13.9961 153.254 14.1367C152.977 14.2773 152.76 14.4746 152.604 14.7285C152.448 14.9824 152.37 15.2695 152.37 15.5898C152.37 15.9023 152.448 16.1836 152.604 16.4336C152.76 16.6836 152.977 16.8789 153.254 17.0195C153.532 17.1602 153.846 17.2344 154.198 17.2422C154.549 17.2344 154.864 17.1602 155.141 17.0195C155.418 16.8789 155.635 16.6836 155.791 16.4336C155.948 16.1836 156.026 15.9023 156.026 15.5898C156.026 15.2695 155.948 14.9824 155.791 14.7285C155.635 14.4746 155.418 14.2773 155.141 14.1367C154.864 13.9961 154.549 13.9297 154.198 13.9375ZM164.273 13.3398C164.781 13.3398 165.23 13.4902 165.621 13.791C166.011 14.0918 166.318 14.5156 166.541 15.0625C166.763 15.6094 166.875 16.2461 166.875 16.9727C166.875 17.6992 166.763 18.3359 166.541 18.8828C166.318 19.4297 166.011 19.8516 165.621 20.1484C165.23 20.4453 164.781 20.5938 164.273 20.5938C163.765 20.5938 163.314 20.4453 162.919 20.1484C162.525 19.8516 162.216 19.4297 161.994 18.8828C161.771 18.3359 161.66 17.6992 161.66 16.9727C161.66 16.2461 161.771 15.6094 161.994 15.0625C162.216 14.5156 162.525 14.0918 162.919 13.791C163.314 13.4902 163.765 13.3398 164.273 13.3398ZM164.273 14.1602C163.937 14.1602 163.636 14.2773 163.371 14.5117C163.105 14.7461 162.9 15.0742 162.755 15.4961C162.611 15.918 162.539 16.4102 162.539 16.9727C162.539 17.5273 162.611 18.0176 162.755 18.4434C162.9 18.8691 163.105 19.1973 163.371 19.4277C163.636 19.6582 163.937 19.7734 164.273 19.7734C164.609 19.7734 164.91 19.6582 165.175 19.4277C165.441 19.1973 165.646 18.8691 165.791 18.4434C165.935 18.0176 166.007 17.5273 166.007 16.9727C166.007 16.4102 165.935 15.918 165.791 15.4961C165.646 15.0742 165.443 14.7461 165.181 14.5117C164.919 14.2773 164.617 14.1602 164.273 14.1602ZM170.109 22.9727H169.195V12.5312H170.109V22.9727ZM169.605 17.2773H166.57V16.5156H169.605V17.2773ZM174.993 21.0273H174.09V17.9102H174.993V21.0273ZM178.895 21.0273H177.969V17.9102H178.895V21.0273ZM181.262 21.6133H171.723V20.8398H181.262V21.6133ZM176.469 13.1875C177.212 13.1875 177.87 13.2988 178.444 13.5215C179.018 13.7441 179.467 14.0586 179.792 14.4648C180.116 14.8711 180.278 15.3398 180.278 15.8711C180.278 16.4023 180.116 16.8691 179.792 17.2715C179.467 17.6738 179.018 17.9863 178.444 18.209C177.87 18.4316 177.212 18.543 176.469 18.543C175.735 18.543 175.079 18.4316 174.501 18.209C173.923 17.9863 173.471 17.6738 173.147 17.2715C172.823 16.8691 172.661 16.4023 172.661 15.8711C172.661 15.3398 172.823 14.8711 173.147 14.4648C173.471 14.0586 173.923 13.7441 174.501 13.5215C175.079 13.2988 175.735 13.1875 176.469 13.1875ZM176.469 13.9492C175.907 13.9414 175.405 14.0176 174.964 14.1777C174.522 14.3379 174.176 14.5645 173.926 14.8574C173.676 15.1504 173.551 15.4883 173.551 15.8711C173.551 16.2539 173.676 16.5918 173.926 16.8848C174.176 17.1777 174.522 17.4062 174.964 17.5703C175.405 17.7344 175.907 17.8164 176.469 17.8164C177.032 17.8164 177.534 17.7344 177.975 17.5703C178.417 17.4062 178.762 17.1777 179.012 16.8848C179.262 16.5918 179.387 16.2539 179.387 15.8711C179.387 15.4883 179.262 15.1504 179.012 14.8574C178.762 14.5645 178.417 14.3379 177.975 14.1777C177.534 14.0176 177.032 13.9414 176.469 13.9492Z" fill="black"/>
</svg>
