<svg width="50" height="51" viewBox="0 0 50 51" fill="none" xmlns="http://www.w3.org/2000/svg">
<g filter="url(#filter0_i_218_2775)">
<path d="M43.2227 21.4638C44.113 36.9303 33.6721 41.384 22.9074 40.8172C14.9954 40.8172 8.58142 34.4002 8.58142 26.4844C8.58142 13.3662 20.9847 7.13104 28.8967 7.13104C36.8087 7.13104 43.2227 13.5481 43.2227 21.4638Z" fill="url(#paint0_radial_218_2775)" fill-opacity="0.24"/>
</g>
<g filter="url(#filter1_i_218_2775)">
<path d="M32.3192 7.70342C46.1524 14.6653 44.787 25.9386 38.914 34.9821C34.958 41.8374 26.1964 44.1862 19.3444 40.2283C7.98922 33.6692 8.79364 19.8049 12.7496 12.9496C16.7056 6.09432 25.4673 3.74553 32.3192 7.70342Z" fill="url(#paint1_radial_218_2775)" fill-opacity="0.17"/>
</g>
<g filter="url(#filter2_i_218_2775)">
<path d="M40.6999 37.7401C28.9303 47.709 16.2825 42.7072 10.4043 33.9707C5.75267 27.7992 5.68911 15.9266 11.9807 11.1798C22.4073 3.31351 36.0483 12.2711 40.6999 18.4425C45.3515 24.614 46.9915 32.9933 40.6999 37.7401Z" fill="url(#paint2_radial_218_2775)" fill-opacity="0.16"/>
</g>
<defs>
<filter id="filter0_i_218_2775" x="8.58142" y="7.13104" width="34.6944" height="33.7331" filterUnits="userSpaceOnUse" color-interpolation-filters="sRGB">
<feFlood flood-opacity="0" result="BackgroundImageFix"/>
<feBlend mode="normal" in="SourceGraphic" in2="BackgroundImageFix" result="shape"/>
<feColorMatrix in="SourceAlpha" type="matrix" values="0 0 0 0 0 0 0 0 0 0 0 0 0 0 0 0 0 0 127 0" result="hardAlpha"/>
<feOffset/>
<feGaussianBlur stdDeviation="1.45543"/>
<feComposite in2="hardAlpha" operator="arithmetic" k2="-1" k3="1"/>
<feColorMatrix type="matrix" values="0 0 0 0 1 0 0 0 0 1 0 0 0 0 1 0 0 0 1 0"/>
<feBlend mode="normal" in2="shape" result="effect1_innerShadow_218_2775"/>
</filter>
<filter id="filter1_i_218_2775" x="10.0917" y="5.78079" width="33.0481" height="36.3701" filterUnits="userSpaceOnUse" color-interpolation-filters="sRGB">
<feFlood flood-opacity="0" result="BackgroundImageFix"/>
<feBlend mode="normal" in="SourceGraphic" in2="BackgroundImageFix" result="shape"/>
<feColorMatrix in="SourceAlpha" type="matrix" values="0 0 0 0 0 0 0 0 0 0 0 0 0 0 0 0 0 0 127 0" result="hardAlpha"/>
<feOffset/>
<feGaussianBlur stdDeviation="1.45543"/>
<feComposite in2="hardAlpha" operator="arithmetic" k2="-1" k3="1"/>
<feColorMatrix type="matrix" values="0 0 0 0 1 0 0 0 0 1 0 0 0 0 1 0 0 0 1 0"/>
<feBlend mode="normal" in2="shape" result="effect1_innerShadow_218_2775"/>
</filter>
<filter id="filter2_i_218_2775" x="7.06909" y="8.0986" width="37.7573" height="35.1405" filterUnits="userSpaceOnUse" color-interpolation-filters="sRGB">
<feFlood flood-opacity="0" result="BackgroundImageFix"/>
<feBlend mode="normal" in="SourceGraphic" in2="BackgroundImageFix" result="shape"/>
<feColorMatrix in="SourceAlpha" type="matrix" values="0 0 0 0 0 0 0 0 0 0 0 0 0 0 0 0 0 0 127 0" result="hardAlpha"/>
<feOffset/>
<feGaussianBlur stdDeviation="1.45543"/>
<feComposite in2="hardAlpha" operator="arithmetic" k2="-1" k3="1"/>
<feColorMatrix type="matrix" values="0 0 0 0 1 0 0 0 0 1 0 0 0 0 1 0 0 0 1 0"/>
<feBlend mode="normal" in2="shape" result="effect1_innerShadow_218_2775"/>
</filter>
<radialGradient id="paint0_radial_218_2775" cx="0" cy="0" r="1" gradientUnits="userSpaceOnUse" gradientTransform="translate(25.9286 23.9976) rotate(90) scale(16.8666 17.3472)">
<stop/>
<stop offset="1" stop-color="#4D65FE"/>
</radialGradient>
<radialGradient id="paint1_radial_218_2775" cx="0" cy="0" r="1" gradientTransform="matrix(-8.67361 15.0303 -14.5999 -8.43328 25.8655 23.9546)" gradientUnits="userSpaceOnUse">
<stop/>
<stop offset="1" stop-color="#B0FDEB"/>
</radialGradient>
<radialGradient id="paint2_radial_218_2775" cx="0" cy="0" r="1" gradientTransform="matrix(11.6004 15.3906 -13.3996 10.1094 25 25.5)" gradientUnits="userSpaceOnUse">
<stop/>
<stop offset="1" stop-color="#D640EA"/>
</radialGradient>
</defs>
</svg>
