<svg width="206" height="84" viewBox="0 0 206 84" fill="none" xmlns="http://www.w3.org/2000/svg">
<path d="M12.3717 27.56C12.3717 27.5067 12.3851 27.4667 12.4117 27.44C12.3051 27.2533 12.2784 27.0533 12.3317 26.84C12.4117 26.6 12.5984 26.4267 12.8917 26.32C13.1584 26.2133 13.5984 26.1467 14.2117 26.12C14.8517 26.0667 15.5051 26.0533 16.1717 26.08C16.8651 26.1067 17.5051 26.1333 18.0917 26.16C18.7051 26.1867 19.1317 26.2 19.3717 26.2C23.3184 26.12 27.2517 26.08 31.1717 26.08C31.4651 26.1867 31.6651 26.3467 31.7717 26.56C31.8784 26.7733 31.8784 26.9867 31.7717 27.2C31.7717 27.8933 31.7851 28.5867 31.8117 29.28C31.8384 29.9467 31.8251 30.6267 31.7717 31.32C32.1717 31.48 32.3584 31.76 32.3317 32.16C32.3051 32.5333 32.0651 32.76 31.6117 32.84C29.6384 32.84 27.6917 32.8267 25.7717 32.8C23.8784 32.7733 21.9584 32.76 20.0117 32.76C20.0117 33.4267 20.0251 34.12 20.0517 34.84C20.1051 35.56 20.1184 36.2533 20.0917 36.92C20.7051 36.92 21.4251 36.92 22.2517 36.92C23.1051 36.8933 23.9851 36.88 24.8917 36.88C25.7984 36.8533 26.7051 36.8533 27.6117 36.88C28.5184 36.88 29.3317 36.9067 30.0517 36.96C30.2117 37.0133 30.3317 37.0667 30.4117 37.12C30.4917 37.1733 30.5851 37.2667 30.6917 37.4C30.7984 37.72 30.8651 38.12 30.8917 38.6C30.9451 39.0533 30.9717 39.5333 30.9717 40.04C30.9717 40.52 30.9451 41 30.8917 41.48C30.8651 41.9333 30.7984 42.32 30.6917 42.64C30.5584 42.9067 30.4384 43.08 30.3317 43.16C30.1717 43.3733 29.9717 43.4933 29.7317 43.52C28.0784 43.52 26.4517 43.52 24.8517 43.52C23.2517 43.4933 21.6384 43.48 20.0117 43.48V48.32C21.8784 48.32 23.7317 48.3067 25.5717 48.28C27.4384 48.2267 29.2917 48.2 31.1317 48.2C31.2917 48.1733 31.4384 48.1733 31.5717 48.2C31.7317 48.2 31.8784 48.2 32.0117 48.2C32.1717 48.2533 32.2917 48.3067 32.3717 48.36C32.4784 48.3867 32.5451 48.48 32.5717 48.64C32.7851 50.24 32.7851 51.8133 32.5717 53.36C32.9184 53.7067 32.9184 54.1333 32.5717 54.64C32.3051 54.8 31.8917 54.9067 31.3317 54.96C30.7717 55.0133 30.1717 55.04 29.5317 55.04C28.9184 55.04 28.3184 55.0267 27.7317 55C27.1451 54.9733 26.7184 54.96 26.4517 54.96H13.8117C13.7851 54.96 13.7584 54.9467 13.7317 54.92C13.7317 54.92 13.7184 54.92 13.6917 54.92C13.4784 54.9733 13.2784 54.9333 13.0917 54.8C12.9317 54.6667 12.8251 54.4533 12.7717 54.16C12.7984 52.7467 12.7984 51.3333 12.7717 49.92C12.7717 48.48 12.7317 47.0533 12.6517 45.64C12.5984 44.36 12.5584 42.96 12.5317 41.44C12.5317 39.92 12.5317 38.3733 12.5317 36.8C12.5317 35.2 12.5184 33.6133 12.4917 32.04C12.4917 30.4667 12.4517 28.9733 12.3717 27.56ZM35.2605 27.72C35.2605 27.4533 35.3138 27.2133 35.4205 27C35.5538 26.76 35.8071 26.6133 36.1805 26.56C37.1938 26.56 38.1538 26.5733 39.0605 26.6C39.9671 26.6 40.8871 26.6 41.8205 26.6C42.2471 26.6533 42.5005 26.7467 42.5805 26.88C42.6605 27.0133 42.7271 27.3067 42.7805 27.76C42.7805 30.1333 42.8071 32.5067 42.8605 34.88C42.9405 37.2267 42.9671 39.6 42.9405 42C42.9405 43.04 42.9271 44.0667 42.9005 45.08C42.8738 46.0933 42.9005 47.12 42.9805 48.16C44.7938 48.16 46.4871 48.1467 48.0605 48.12C49.6338 48.0667 51.3271 48.0267 53.1405 48C53.3538 47.92 53.5538 47.9333 53.7405 48.04C54.0338 48.12 54.2071 48.28 54.2605 48.52C54.3405 48.76 54.3138 48.9867 54.1805 49.2C54.2071 50.2133 54.2205 51.0133 54.2205 51.6C54.2205 52.1867 54.2205 52.64 54.2205 52.96C54.2205 53.2533 54.2205 53.4667 54.2205 53.6C54.2205 53.7067 54.2071 53.7733 54.1805 53.8V54.2C54.1271 54.3067 54.0338 54.3867 53.9005 54.44C53.7938 54.52 53.6605 54.5733 53.5005 54.6C53.3405 54.6267 53.1805 54.6133 53.0205 54.56C52.8605 54.5333 52.7271 54.4533 52.6205 54.32C50.6471 54.3467 48.7271 54.36 46.8605 54.36C45.0205 54.36 43.1005 54.3867 41.1005 54.44C40.3538 54.44 39.5671 54.4667 38.7405 54.52C37.9405 54.6 37.1671 54.5867 36.4205 54.48C35.9671 54.3733 35.6871 54.0933 35.5805 53.64C35.5805 52.4133 35.5938 51.1867 35.6205 49.96C35.6738 48.7333 35.6738 47.52 35.6205 46.32C35.5938 45.5467 35.5671 44.8 35.5405 44.08C35.5405 43.36 35.5138 42.6267 35.4605 41.88C35.3271 39.5067 35.2471 37.1467 35.2205 34.8C35.1938 32.4267 35.2071 30.0667 35.2605 27.72ZM57.1327 27.36C57.1593 27.2 57.226 27.0533 57.3327 26.92C57.3327 26.4667 57.6127 26.2133 58.1727 26.16C59.666 26.16 61.1193 26.1467 62.5327 26.12C63.9727 26.0933 65.386 26.0667 66.7727 26.04C68.186 26.0133 69.5993 25.9867 71.0127 25.96C72.4527 25.9333 73.9193 25.92 75.4127 25.92C75.5727 25.9733 75.6793 26.0267 75.7327 26.08C75.8127 26.1333 75.8927 26.2267 75.9727 26.36C76.0527 26.52 76.1193 26.8 76.1727 27.2C76.2527 27.5733 76.2927 28 76.2927 28.48C76.3193 28.9333 76.3193 29.4133 76.2927 29.92C76.2927 30.4 76.2527 30.84 76.1727 31.24C76.386 31.4533 76.4527 31.7067 76.3727 32C76.2927 32.2667 76.0793 32.44 75.7327 32.52C73.8127 32.52 72.026 32.5333 70.3727 32.56C68.7193 32.5867 66.9593 32.6 65.0927 32.6C65.0927 34.0133 65.0527 35.44 64.9727 36.88C65.666 36.9067 66.506 36.92 67.4927 36.92C68.4793 36.92 69.4527 36.92 70.4127 36.92C71.3727 36.92 72.2393 36.9333 73.0127 36.96C73.8127 36.96 74.346 37 74.6127 37.08C74.826 37.1333 74.9727 37.2667 75.0527 37.48C75.1593 37.6933 75.226 37.9333 75.2527 38.2C75.306 38.8933 75.2927 39.5867 75.2127 40.28C75.1593 40.9733 75.1593 41.6 75.2127 42.16C75.2393 42.4267 75.226 42.6533 75.1727 42.84C75.146 43.0267 75.0393 43.1867 74.8527 43.32C74.6927 43.4533 74.4393 43.56 74.0927 43.64C73.746 43.72 73.266 43.7733 72.6527 43.8L65.0927 43.92C65.146 45.4667 65.1727 47 65.1727 48.52C65.1993 50.04 65.186 51.5867 65.1327 53.16C65.3727 53.3733 65.4527 53.6267 65.3727 53.92C65.2927 54.2133 65.066 54.4 64.6927 54.48C63.5727 54.48 62.4927 54.4933 61.4527 54.52C60.4127 54.5467 59.3327 54.56 58.2127 54.56C57.786 54.5067 57.5193 54.3467 57.4127 54.08C57.3327 53.84 57.306 53.5333 57.3327 53.16C57.3327 48.84 57.2927 44.56 57.2127 40.32C57.1593 36.08 57.1327 31.76 57.1327 27.36ZM79.9898 45.04C79.9365 42.2667 79.8832 39.5067 79.8298 36.76C79.7765 34.0133 79.7365 31.24 79.7098 28.44C79.6832 28.2267 79.6565 28.0133 79.6298 27.8C79.6298 27.5867 79.7098 27.4133 79.8698 27.28C80.0032 27.04 80.1898 26.92 80.4298 26.92C80.6698 26.92 80.8965 26.9067 81.1098 26.88C82.0165 26.8533 82.9498 26.84 83.9098 26.84C84.8698 26.8133 85.8032 26.8267 86.7098 26.88C87.0565 26.9867 87.2832 27.2267 87.3898 27.6C87.6032 28.5333 87.6965 29.5067 87.6698 30.52C87.6698 31.5067 87.6965 32.48 87.7498 33.44C87.8032 34.4533 87.8165 35.4667 87.7898 36.48C87.7632 37.4933 87.7232 38.52 87.6698 39.56C87.6165 40.5733 87.5632 41.5867 87.5098 42.6C87.4565 43.6133 87.4432 44.6267 87.4698 45.64C87.4965 46.2533 87.5232 46.92 87.5498 47.64C87.6032 48.3333 87.6432 49.04 87.6698 49.76C87.6965 50.48 87.6832 51.1867 87.6298 51.88C87.6032 52.5467 87.5098 53.1467 87.3498 53.68C87.2698 53.8933 87.1898 54.04 87.1098 54.12C87.0298 54.2 86.8832 54.2667 86.6698 54.32C86.1365 54.3467 85.6698 54.3733 85.2698 54.4C84.8698 54.4267 84.4832 54.44 84.1098 54.44C83.7365 54.44 83.3498 54.4267 82.9498 54.4C82.5498 54.4 82.0832 54.3867 81.5498 54.36C81.2032 54.3867 80.8698 54.3333 80.5498 54.2C80.2565 54.0667 80.0965 53.7333 80.0698 53.2V50.84C80.0698 49.8533 80.0565 48.88 80.0298 47.92C80.0298 46.96 80.0165 46 79.9898 45.04ZM97.2936 26.72C98.1203 26.4 99.0403 26.1733 100.054 26.04C101.094 25.9067 102.147 25.88 103.214 25.96C104.28 26.0133 105.334 26.1867 106.374 26.48C107.414 26.7467 108.374 27.1467 109.254 27.68V27.64C109.707 27.8267 109.974 28.0667 110.054 28.36C110.16 28.6267 110.12 28.8667 109.934 29.08L109.774 29.28C109.747 29.3333 109.734 29.3733 109.734 29.4C109.734 29.4267 109.72 29.4533 109.694 29.48C109.32 30.0933 109.014 30.72 108.774 31.36C108.534 32 108.347 32.7067 108.214 33.48C108.054 33.8267 107.854 34.0667 107.614 34.2C107.374 34.3067 107.174 34.2933 107.014 34.16C105.734 33.3333 104.294 32.92 102.694 32.92C102.08 32.92 101.507 32.9333 100.974 32.96C100.44 32.96 99.9069 33.1067 99.3736 33.4C99.1603 33.6133 98.9736 33.84 98.8136 34.08C98.6803 34.32 98.6136 34.5467 98.6136 34.76C98.6136 35.2133 98.8136 35.6 99.2136 35.92C99.6136 36.24 100.134 36.5467 100.774 36.84C101.414 37.1067 102.12 37.3733 102.894 37.64C103.667 37.9067 104.414 38.1867 105.134 38.48C105.987 38.8533 106.707 39.2267 107.294 39.6C107.907 39.9467 108.334 40.2267 108.574 40.44C108.92 40.76 109.28 41.1467 109.654 41.6C110.027 42.0267 110.347 42.48 110.614 42.96C110.907 43.44 111.134 43.9333 111.294 44.44C111.454 44.9467 111.494 45.44 111.414 45.92C111.414 47.4933 111.16 48.8267 110.654 49.92C110.147 50.9867 109.454 51.8667 108.574 52.56C107.72 53.2533 106.734 53.7733 105.614 54.12C104.52 54.4667 103.374 54.6933 102.174 54.8C101.24 54.8533 100.294 54.8533 99.3336 54.8C98.4003 54.7467 97.4669 54.64 96.5336 54.48C95.6269 54.32 94.7469 54.1333 93.8936 53.92C93.0669 53.7067 92.2936 53.4667 91.5736 53.2C91.4403 53.2 91.3203 53.0667 91.2136 52.8C91.1069 52.5333 91.1336 52.2133 91.2936 51.84C91.5869 51.1467 91.8536 50.48 92.0936 49.84C92.3603 49.1733 92.4936 48.4133 92.4936 47.56C92.3336 47.1867 92.3603 46.92 92.5736 46.76C92.8136 46.6 93.0936 46.52 93.4136 46.52C94.0003 46.7867 94.6269 47.0533 95.2936 47.32C95.9603 47.56 96.6403 47.7733 97.3336 47.96C98.0269 48.1467 98.7336 48.2933 99.4536 48.4C100.174 48.48 100.867 48.48 101.534 48.4C102.227 48.3733 102.867 48.2133 103.454 47.92C104.04 47.6 104.334 47.0933 104.334 46.4C104.334 46.24 104.28 45.9867 104.174 45.64C104.067 45.2667 103.827 44.9333 103.454 44.64C102.414 44.0267 101.267 43.52 100.014 43.12C98.7603 42.6933 97.5469 42.1867 96.3736 41.6C95.2269 40.9867 94.2003 40.1867 93.2936 39.2C92.4136 38.2133 91.8403 36.8533 91.5736 35.12C91.4936 34.1333 91.5869 33.1867 91.8536 32.28C92.1469 31.3733 92.5469 30.56 93.0536 29.84C93.5869 29.0933 94.2136 28.4533 94.9336 27.92C95.6803 27.3867 96.4669 26.9867 97.2936 26.72ZM128.748 55C127.415 55 126.081 54.7867 124.748 54.36C123.415 53.96 122.148 53.4 120.948 52.68C119.748 51.9333 118.655 51.04 117.668 50C116.708 48.9333 115.921 47.76 115.308 46.48C114.828 45.52 114.548 44.4533 114.468 43.28C114.415 42.08 114.388 40.8533 114.388 39.6C114.575 38.08 114.855 36.6533 115.228 35.32C115.601 33.9867 116.201 32.64 117.028 31.28C117.935 30.1333 119.015 29.1733 120.268 28.4C121.521 27.6 122.855 27.0133 124.268 26.64C125.681 26.2667 127.135 26.1067 128.628 26.16C130.121 26.1867 131.575 26.4533 132.988 26.96C134.001 27.4667 134.948 28 135.828 28.56C136.735 29.12 137.561 29.76 138.308 30.48C139.055 31.1733 139.695 31.9733 140.228 32.88C140.761 33.76 141.175 34.7867 141.468 35.96C141.788 37.2933 141.935 38.6267 141.908 39.96C141.881 41.2667 141.788 42.5733 141.628 43.88C141.468 45.08 141.188 46.1733 140.788 47.16C140.388 48.12 139.788 49.0267 138.988 49.88C137.815 51.48 136.321 52.7333 134.508 53.64C132.721 54.5467 130.801 55 128.748 55ZM134.308 39.88C134.228 39.1333 134.055 38.3867 133.788 37.64C133.548 36.8933 133.201 36.2133 132.748 35.6C132.295 34.96 131.748 34.4267 131.108 34C130.468 33.5733 129.708 33.28 128.828 33.12C127.681 32.9867 126.668 33.1467 125.788 33.6C124.935 34.0267 124.215 34.64 123.628 35.44C123.068 36.24 122.641 37.16 122.348 38.2C122.081 39.2133 121.975 40.24 122.028 41.28C122.108 42.1867 122.295 43.0533 122.588 43.88C122.881 44.7067 123.295 45.44 123.828 46.08C124.388 46.72 125.055 47.24 125.828 47.64C126.628 48.0133 127.561 48.2 128.628 48.2C129.828 48.2 130.801 48.0267 131.548 47.68C132.295 47.3333 132.921 46.6667 133.428 45.68C133.935 44.8267 134.201 43.9067 134.228 42.92C134.281 41.9067 134.308 40.8933 134.308 39.88ZM145.767 27.68C145.847 27.2533 146.074 27.0133 146.447 26.96C146.501 26.96 146.541 26.96 146.567 26.96C146.594 26.9333 146.634 26.92 146.687 26.92C148.794 26.8133 150.821 26.7467 152.767 26.72C154.741 26.6933 156.581 26.8 158.287 27.04C160.021 27.2533 161.607 27.64 163.047 28.2C164.487 28.76 165.727 29.5733 166.767 30.64C167.834 31.7067 168.674 33.0667 169.287 34.72C169.927 36.3733 170.301 38.4 170.407 40.8C170.514 42.7467 170.274 44.4933 169.687 46.04C169.101 47.5867 168.247 48.9333 167.127 50.08C166.034 51.2267 164.714 52.1867 163.167 52.96C161.621 53.7067 159.941 54.2533 158.127 54.6C156.341 54.9733 154.461 55.16 152.487 55.16C150.541 55.16 148.594 54.96 146.647 54.56C146.354 54.5067 146.167 54.3867 146.087 54.2C146.034 54.04 146.034 53.8667 146.087 53.68L146.007 53.4C145.927 52.84 145.874 52.1733 145.847 51.4C145.847 50.6267 145.861 49.84 145.887 49.04C145.941 48.24 145.981 47.4533 146.007 46.68C146.061 45.9067 146.087 45.2267 146.087 44.64C146.061 41.7867 146.007 38.96 145.927 36.16C145.847 33.3333 145.794 30.5067 145.767 27.68ZM153.407 33.56C153.407 34.8133 153.421 36.0267 153.447 37.2C153.474 38.3733 153.501 39.5467 153.527 40.72C153.554 41.8667 153.581 43.0267 153.607 44.2C153.634 45.3733 153.647 46.6 153.647 47.88C154.954 47.96 156.194 47.84 157.367 47.52C158.541 47.2 159.541 46.68 160.367 45.96C161.221 45.24 161.861 44.32 162.287 43.2C162.714 42.0533 162.847 40.7067 162.687 39.16C162.554 37.88 162.221 36.8533 161.687 36.08C161.181 35.28 160.514 34.68 159.687 34.28C158.861 33.88 157.914 33.64 156.847 33.56C155.781 33.4533 154.634 33.4533 153.407 33.56ZM174.676 27.56C174.676 27.5067 174.69 27.4667 174.716 27.44C174.61 27.2533 174.583 27.0533 174.636 26.84C174.716 26.6 174.903 26.4267 175.196 26.32C175.463 26.2133 175.903 26.1467 176.516 26.12C177.156 26.0667 177.81 26.0533 178.476 26.08C179.17 26.1067 179.81 26.1333 180.396 26.16C181.01 26.1867 181.436 26.2 181.676 26.2C185.623 26.12 189.556 26.08 193.476 26.08C193.77 26.1867 193.97 26.3467 194.076 26.56C194.183 26.7733 194.183 26.9867 194.076 27.2C194.076 27.8933 194.09 28.5867 194.116 29.28C194.143 29.9467 194.13 30.6267 194.076 31.32C194.476 31.48 194.663 31.76 194.636 32.16C194.61 32.5333 194.37 32.76 193.916 32.84C191.943 32.84 189.996 32.8267 188.076 32.8C186.183 32.7733 184.263 32.76 182.316 32.76C182.316 33.4267 182.33 34.12 182.356 34.84C182.41 35.56 182.423 36.2533 182.396 36.92C183.01 36.92 183.73 36.92 184.556 36.92C185.41 36.8933 186.29 36.88 187.196 36.88C188.103 36.8533 189.01 36.8533 189.916 36.88C190.823 36.88 191.636 36.9067 192.356 36.96C192.516 37.0133 192.636 37.0667 192.716 37.12C192.796 37.1733 192.89 37.2667 192.996 37.4C193.103 37.72 193.17 38.12 193.196 38.6C193.25 39.0533 193.276 39.5333 193.276 40.04C193.276 40.52 193.25 41 193.196 41.48C193.17 41.9333 193.103 42.32 192.996 42.64C192.863 42.9067 192.743 43.08 192.636 43.16C192.476 43.3733 192.276 43.4933 192.036 43.52C190.383 43.52 188.756 43.52 187.156 43.52C185.556 43.4933 183.943 43.48 182.316 43.48V48.32C184.183 48.32 186.036 48.3067 187.876 48.28C189.743 48.2267 191.596 48.2 193.436 48.2C193.596 48.1733 193.743 48.1733 193.876 48.2C194.036 48.2 194.183 48.2 194.316 48.2C194.476 48.2533 194.596 48.3067 194.676 48.36C194.783 48.3867 194.85 48.48 194.876 48.64C195.09 50.24 195.09 51.8133 194.876 53.36C195.223 53.7067 195.223 54.1333 194.876 54.64C194.61 54.8 194.196 54.9067 193.636 54.96C193.076 55.0133 192.476 55.04 191.836 55.04C191.223 55.04 190.623 55.0267 190.036 55C189.45 54.9733 189.023 54.96 188.756 54.96H176.116C176.09 54.96 176.063 54.9467 176.036 54.92C176.036 54.92 176.023 54.92 175.996 54.92C175.783 54.9733 175.583 54.9333 175.396 54.8C175.236 54.6667 175.13 54.4533 175.076 54.16C175.103 52.7467 175.103 51.3333 175.076 49.92C175.076 48.48 175.036 47.0533 174.956 45.64C174.903 44.36 174.863 42.96 174.836 41.44C174.836 39.92 174.836 38.3733 174.836 36.8C174.836 35.2 174.823 33.6133 174.796 32.04C174.796 30.4667 174.756 28.9733 174.676 27.56Z" fill="url(#paint0_linear_218_2772)"/>
<defs>
<linearGradient id="paint0_linear_218_2772" x1="103" y1="10" x2="103" y2="74" gradientUnits="userSpaceOnUse">
<stop stop-color="white"/>
<stop offset="1" stop-color="#A9ABFE"/>
</linearGradient>
</defs>
</svg>
