<svg width="289" height="43" viewBox="0 0 289 43" fill="none" xmlns="http://www.w3.org/2000/svg">
<rect x="11" y="11" width="267" height="2" rx="1" fill="#E3E1EA"/>
<circle cx="277.5" cy="11.5" r="11.5" fill="#DDDDFF"/>
<circle cx="277.5" cy="11.5" r="7.1875" fill="#A9ABFE"/>
<path d="M272.612 39.1367C271.819 39.1367 271.138 38.9385 270.568 38.542C270.003 38.141 269.568 37.5599 269.263 36.7988C268.962 36.0378 268.811 35.1217 268.811 34.0508C268.811 32.9844 268.962 32.0706 269.263 31.3096C269.568 30.5439 270.005 29.9629 270.575 29.5664C271.145 29.1654 271.824 28.9648 272.612 28.9648C273.396 28.9648 274.073 29.1654 274.642 29.5664C275.217 29.9629 275.654 30.5439 275.955 31.3096C276.26 32.0706 276.413 32.9844 276.413 34.0508C276.413 35.1217 276.26 36.0378 275.955 36.7988C275.654 37.5599 275.219 38.141 274.649 38.542C274.084 38.9385 273.405 39.1367 272.612 39.1367ZM272.612 37.6465C273.031 37.6465 273.389 37.512 273.685 37.2432C273.986 36.9697 274.216 36.5664 274.376 36.0332C274.54 35.4954 274.622 34.8346 274.622 34.0508C274.622 33.276 274.54 32.6198 274.376 32.082C274.216 31.5397 273.986 31.1318 273.685 30.8584C273.385 30.5804 273.027 30.4414 272.612 30.4414C272.197 30.4414 271.84 30.5804 271.539 30.8584C271.238 31.1318 271.006 31.5397 270.842 32.082C270.682 32.6198 270.602 33.276 270.602 34.0508C270.602 34.8346 270.682 35.4954 270.842 36.0332C271.006 36.5664 271.236 36.9697 271.532 37.2432C271.833 37.512 272.193 37.6465 272.612 37.6465ZM281.429 39.1367C280.732 39.1367 280.107 39.0182 279.556 38.7812C279.004 38.5443 278.571 38.2139 278.257 37.79C277.943 37.3617 277.778 36.8717 277.765 36.3203H279.556C279.574 36.5801 279.665 36.8102 279.829 37.0107C279.998 37.2067 280.221 37.3594 280.499 37.4688C280.777 37.5781 281.087 37.6328 281.429 37.6328C281.789 37.6328 282.11 37.5713 282.393 37.4482C282.68 37.3206 282.903 37.1452 283.063 36.9219C283.222 36.6986 283.302 36.4434 283.302 36.1562C283.302 35.86 283.22 35.5957 283.056 35.3633C282.892 35.1309 282.655 34.9508 282.345 34.8232C282.035 34.6911 281.67 34.625 281.251 34.625H280.362V33.2578H281.251C281.597 33.2578 281.905 33.1986 282.174 33.0801C282.447 32.957 282.659 32.7861 282.81 32.5674C282.96 32.3441 283.033 32.0911 283.028 31.8086C283.033 31.5352 282.969 31.2936 282.837 31.084C282.709 30.8698 282.525 30.7057 282.283 30.5918C282.042 30.4733 281.762 30.4141 281.443 30.4141C281.133 30.4141 280.843 30.471 280.574 30.585C280.31 30.6943 280.096 30.8516 279.932 31.0566C279.772 31.2617 279.688 31.4987 279.679 31.7676H277.97C277.984 31.2207 278.143 30.7354 278.448 30.3115C278.758 29.8877 279.175 29.5573 279.699 29.3203C280.228 29.0833 280.814 28.9648 281.456 28.9648C282.108 28.9648 282.684 29.0879 283.186 29.334C283.687 29.5755 284.074 29.9059 284.348 30.3252C284.621 30.7445 284.756 31.207 284.751 31.7129C284.756 32.0775 284.683 32.4079 284.532 32.7041C284.382 33.0003 284.17 33.2464 283.897 33.4424C283.623 33.6383 283.306 33.7728 282.946 33.8457V33.9277C283.407 33.9915 283.801 34.1283 284.129 34.3379C284.457 34.543 284.706 34.8096 284.874 35.1377C285.043 35.4658 285.125 35.8372 285.12 36.252C285.125 36.7988 284.968 37.2933 284.649 37.7354C284.334 38.1729 283.894 38.5169 283.329 38.7676C282.769 39.0137 282.135 39.1367 281.429 39.1367Z" fill="#A9ABFE"/>
<circle cx="145" cy="12" r="5" fill="#E3E1EA"/>
<path d="M140.817 39.1367C140.024 39.1367 139.343 38.9385 138.773 38.542C138.208 38.141 137.773 37.5599 137.468 36.7988C137.167 36.0378 137.016 35.1217 137.016 34.0508C137.016 32.9844 137.167 32.0706 137.468 31.3096C137.773 30.5439 138.21 29.9629 138.78 29.5664C139.35 29.1654 140.029 28.9648 140.817 28.9648C141.601 28.9648 142.278 29.1654 142.847 29.5664C143.422 29.9629 143.859 30.5439 144.16 31.3096C144.465 32.0706 144.618 32.9844 144.618 34.0508C144.618 35.1217 144.465 36.0378 144.16 36.7988C143.859 37.5599 143.424 38.141 142.854 38.542C142.289 38.9385 141.61 39.1367 140.817 39.1367ZM140.817 37.6465C141.236 37.6465 141.594 37.512 141.89 37.2432C142.191 36.9697 142.421 36.5664 142.581 36.0332C142.745 35.4954 142.827 34.8346 142.827 34.0508C142.827 33.276 142.745 32.6198 142.581 32.082C142.421 31.5397 142.191 31.1318 141.89 30.8584C141.59 30.5804 141.232 30.4414 140.817 30.4414C140.403 30.4414 140.045 30.5804 139.744 30.8584C139.443 31.1318 139.211 31.5397 139.047 32.082C138.887 32.6198 138.807 33.276 138.807 34.0508C138.807 34.8346 138.887 35.4954 139.047 36.0332C139.211 36.5664 139.441 36.9697 139.737 37.2432C140.038 37.512 140.398 37.6465 140.817 37.6465ZM146.038 37.7148L149.538 34.3379C149.916 33.9596 150.208 33.6497 150.413 33.4082C150.623 33.1621 150.782 32.9206 150.892 32.6836C151.001 32.4421 151.056 32.1868 151.056 31.918C151.056 31.6172 150.983 31.3529 150.837 31.125C150.691 30.8971 150.488 30.7217 150.229 30.5986C149.973 30.4756 149.684 30.4141 149.361 30.4141C149.023 30.4141 148.727 30.4824 148.472 30.6191C148.221 30.7513 148.028 30.9427 147.891 31.1934C147.754 31.4395 147.688 31.7266 147.693 32.0547H145.997C145.993 31.4395 146.134 30.8994 146.421 30.4346C146.708 29.9652 147.107 29.6029 147.617 29.3477C148.132 29.0924 148.718 28.9648 149.374 28.9648C150.04 28.9648 150.627 29.0879 151.138 29.334C151.653 29.5801 152.052 29.9219 152.334 30.3594C152.621 30.7923 152.765 31.2845 152.765 31.8359C152.765 32.2188 152.69 32.5879 152.539 32.9434C152.393 33.2988 152.143 33.693 151.787 34.126C151.432 34.5544 150.928 35.0762 150.277 35.6914L148.513 37.4414V37.5098H152.915V39H146.038V37.7148Z" fill="#E3E1EA"/>
<circle cx="6" cy="12" r="5" fill="#E3E1EA"/>
<path d="M4.82211 39.1367C4.02914 39.1367 3.34783 38.9385 2.77816 38.542C2.21306 38.141 1.77784 37.5599 1.4725 36.7988C1.17172 36.0378 1.02133 35.1217 1.02133 34.0508C1.02133 32.9844 1.17172 32.0706 1.4725 31.3096C1.77784 30.5439 2.21534 29.9629 2.785 29.5664C3.35466 29.1654 4.0337 28.9648 4.82211 28.9648C5.60596 28.9648 6.28272 29.1654 6.85238 29.5664C7.4266 29.9629 7.8641 30.5439 8.16488 31.3096C8.47022 32.0706 8.62289 32.9844 8.62289 34.0508C8.62289 35.1217 8.47022 36.0378 8.16488 36.7988C7.8641 37.5599 7.42888 38.141 6.85922 38.542C6.29411 38.9385 5.61508 39.1367 4.82211 39.1367ZM4.82211 37.6465C5.24138 37.6465 5.59913 37.512 5.89535 37.2432C6.19613 36.9697 6.42628 36.5664 6.58578 36.0332C6.74984 35.4954 6.83187 34.8346 6.83187 34.0508C6.83187 33.276 6.74984 32.6198 6.58578 32.082C6.42628 31.5397 6.19613 31.1318 5.89535 30.8584C5.59457 30.5804 5.23682 30.4414 4.82211 30.4414C4.4074 30.4414 4.04965 30.5804 3.74887 30.8584C3.44809 31.1318 3.21566 31.5397 3.0516 32.082C2.8921 32.6198 2.81234 33.276 2.81234 34.0508C2.81234 34.8346 2.8921 35.4954 3.0516 36.0332C3.21566 36.5664 3.44581 36.9697 3.74203 37.2432C4.04281 37.512 4.40284 37.6465 4.82211 37.6465ZM14.0627 39H12.2716V30.8379H12.217L9.90641 32.3145V30.6875L12.3537 29.1016H14.0627V39Z" fill="#E3E1EA"/>
</svg>
