<svg width="375" height="812" viewBox="0 0 375 812" fill="none" xmlns="http://www.w3.org/2000/svg">
<g clip-path="url(#clip0_111_1899)">
<rect width="375" height="812" fill="url(#paint0_linear_111_1899)"/>
<path d="M375 537.368L312.339 522L-2 645.474V823H375V537.368Z" fill="#323963"/>
<path d="M41.5 491.161L182.5 364.161L235 580.661L83 618.161L69.5 562.661L41.5 491.161Z" fill="#150F11"/>
<path d="M169 401.661L193.5 374.161L247 434.161V401.661L263 444.661L272 459.661V474.161L290 491.661V508.661L300 524.161L337.5 547.661L340.5 556.161L311 568.161L296.5 564.661L260 580.161H234L199.5 568.161L187.5 547.661L182 527.661L169 508.661L163.5 518.161L169 532.161H157V508.661L163.5 474.161L182 455.661L173 452.661L182 431.161L187.5 421.661L173 431.161V421.661L169 401.661Z" fill="#150F11"/>
<path d="M198.5 357.661C194.489 354.104 187 350.161 187 350.161C187 350.161 190.692 357.536 191.5 362.661C192.955 371.891 187 386.161 187 386.161C187 386.161 196.459 391.492 202 395.661C206.096 398.743 212 404.161 212 404.161L219.5 470.161C219.5 470.161 246.69 457.205 249.5 437.661C251.307 425.098 247 402.661 247 402.661C247 402.661 240.028 404.057 235.5 404.161C230.003 404.287 221.5 402.661 221.5 402.661C221.5 402.661 217.148 381.955 209 371.161C205.089 365.981 203.497 362.093 198.5 357.661Z" fill="#3F4B85"/>
<path d="M197 487.161C185.621 494.291 171 509.661 171 509.661C171 509.661 183.666 516.376 191.5 521.161C198.479 525.424 209 532.661 209 532.661L230 542.161C230 542.161 222.279 510.372 230 516.661C233.065 519.158 235.5 525.161 235.5 525.161C235.5 525.161 244.54 542.182 255 546.161C263.395 549.355 278 546.161 278 546.161H295.5C295.5 546.161 299.968 549.911 300 553.161C300.06 559.135 285 550.161 285 550.161H268.5V556.161L308.5 560.161L319.5 553.161C319.5 553.161 329.677 554.404 336 553.161C361.686 548.113 285 509.661 285 509.661C285 509.661 283.217 503.425 281.5 499.661C274.622 484.585 251 470.161 251 470.161C251 470.161 215.735 475.423 197 487.161Z" fill="#3F4B85"/>
<path d="M187 369.661V350.161C187 350.161 196.144 357.156 197 363.661C197.717 369.113 191.375 370.636 193 377.161C194.106 381.601 197 388.161 197 388.161L207.5 395.661L213 404.661C213 404.661 202 408.161 195.5 411.911C189 415.661 178 419.161 178 419.161V426.661L193 415.661C193 415.661 193.257 419.636 193 422.161C191.88 433.157 178 446.161 178 446.161C178 446.161 184.248 447.857 187 450.661C195.235 459.052 163 475.161 163 475.161L171 446.161L172.5 419.161L193 401.161L187 395.661L171 411.661L167 398.661L174 380.661L187 369.661Z" fill="#353C6A"/>
<path d="M217.5 491.161L235.5 480.161L234 474.161C234 474.161 218.426 475.436 210 480.161C202.289 484.486 190.5 491.161 190.5 491.161L205.5 495.661L217.5 491.161Z" fill="#353C6A"/>
<path d="M181.5 499.661L171 509.661C171 509.661 189.83 528.425 205.5 528.661C216.244 528.823 227.5 514.161 227.5 514.161C234 512.661 264.864 539.842 284 543.161L333 551.661L318.5 545.661H301.5L284 533.161L273 530.161L259.5 505.161C254.228 495.398 245 505.161 245 505.161H231.5H217.5C212.814 505.161 210.174 505.506 205.5 505.161C195.911 504.453 181.5 499.661 181.5 499.661Z" fill="#353C6A"/>
<g style="mix-blend-mode:soft-light" filter="url(#filter0_f_111_1899)">
<ellipse cx="153.5" cy="532.5" rx="83.5" ry="84.5" fill="#FFFED5"/>
</g>
<g style="mix-blend-mode:soft-light" filter="url(#filter1_f_111_1899)">
<ellipse cx="129.5" cy="555" rx="62.5" ry="63" fill="#FFFED5"/>
</g>
<g style="mix-blend-mode:soft-light" filter="url(#filter2_f_111_1899)">
<ellipse cx="136.5" cy="569" rx="48.5" ry="49" fill="#FFFED5"/>
</g>
<g style="mix-blend-mode:soft-light" filter="url(#filter3_f_111_1899)">
<ellipse cx="88.5" cy="574" rx="42.5" ry="43" fill="#FFFED5"/>
</g>
<g style="mix-blend-mode:soft-light" filter="url(#filter4_f_111_1899)">
<ellipse cx="88.5" cy="574" rx="42.5" ry="43" fill="#FFFED5"/>
</g>
<g style="mix-blend-mode:soft-light" filter="url(#filter5_f_111_1899)">
<ellipse cx="88.5" cy="574" rx="42.5" ry="43" fill="#FFFED5"/>
</g>
<g style="mix-blend-mode:soft-light" filter="url(#filter6_f_111_1899)">
<ellipse cx="88.5" cy="574" rx="42.5" ry="43" fill="#FFFED5"/>
</g>
<g style="mix-blend-mode:soft-light" filter="url(#filter7_f_111_1899)">
<ellipse cx="88.5" cy="574" rx="42.5" ry="43" fill="#FFFED5"/>
</g>
<path d="M26 339.161L-4.5 357.661L-17 572.161C-8.16667 569.661 11.4 563.561 19 559.161C28.5 553.661 38.5 533.661 44.5 528.661C50.5 523.661 55.5 520.161 58.5 516.161C61.5 512.161 83.5 495.661 93 488.661C102.5 481.661 118 467.161 129 458.161C140 449.161 154.5 431.161 156.5 423.161C158.5 415.161 167.5 409.161 171 405.661C174.5 402.161 194 391.661 194 391.161C194 390.661 197 374.661 196.5 372.161C196.1 370.161 194.667 367.661 194 366.661C194.833 365.994 196.6 364.061 197 361.661C197.4 359.261 197.5 356.328 197.5 355.161L234 315.661V304.661C234 304.261 232 301.161 231 299.661C229.5 288.495 226.1 265.561 224.5 263.161C222.5 260.161 223.5 252.661 217.5 248.661C211.612 244.736 196.574 246.107 190.818 246.632L190.5 246.661C185 247.161 160 243.161 154.5 244.161C149 245.161 140.5 251.161 134.5 254.161C128.5 257.161 115.5 269.161 104.5 275.661C93.5 282.161 85 292.161 77 299.661C70.6 305.661 44.3333 323.161 32 331.161L26 339.161Z" fill="#150F11"/>
<path d="M179 362.661L176.5 365.661L177.5 366.661L182.5 364.661L184 360.161L183.5 357.661L182.5 359.161L179 362.661Z" fill="#3B4266"/>
<path d="M150.5 395.661L150 392.661L151 392.161L154 389.661L156.5 388.661C156.667 389.161 157.1 390.361 157.5 391.161C157.9 391.961 156.667 392.494 156 392.661L153 393.661L150.5 395.661Z" fill="#3B4266"/>
<path d="M164.5 381.161V377.161L167 374.161L170.5 372.161L172 373.661L171 374.661L170 377.161L168 377.661L167 379.161L164.5 381.161Z" fill="#3B4266"/>
<path d="M119.5 424.661L120.5 424.161L121.5 418.161L126.5 414.161L130.5 412.161V415.661H132.5L135 416.661C133.167 417.661 129.5 419.861 129.5 420.661C129.5 421.461 128.833 420.328 128.5 419.661L125.5 422.661L123.5 425.661L118 428.161L110.5 435.661L109.5 432.661L111.5 426.661L118 421.661L119.5 424.661Z" fill="#3B4266"/>
<path d="M132 403.661L125 403.161L143.5 356.661L153.5 347.661L168 338.661L179.5 328.161L199.5 322.161L213 306.161L217.5 307.161L225 303.161L217.5 311.661H213L206.5 318.161L196 330.161L193 337.161L175 347.161L170 353.661L156 364.661L132 403.661Z" fill="#353C6A"/>
<path d="M7 516.161L-3 527.161L-4 522.661L7 516.161Z" fill="#3B4266"/>
<path d="M1.5 535.161L-3 537.161L-3.5 533.161L0.5 531.161L3.5 526.661L18.5 520.161L3.5 530.161L1.5 535.161Z" fill="#3B4266"/>
<path d="M0 480.161H-4L-3 496.161H1.5L3 494.661L17.5 505.161L18.5 512.161L26 513.161V514.661L23 516.661L23.5 520.161L37.5 510.661L33 509.161L36 503.161H40.5L41.5 497.661L45 496.161V492.661V489.161L50 486.661L58 478.161L69.5 463.161V456.161H65L61 461.161L62 457.661L46 460.161L41.5 466.161L32 466.661L16.5 471.161L3 481.661L0 480.161Z" fill="#333B60"/>
<path d="M0 480.161H-4V486.661L2.5 487.661L13.5 492.661L14.5 485.661L17 482.661V488.661L22.5 487.661L30.5 489.661L37.5 479.161L61 461.161L62 457.661L46 460.161L41.5 466.161L32 466.661L16.5 471.161L3 481.661L0 480.161Z" fill="#434880"/>
<path d="M26 339.161L-4.5 357.661V392.161L32 381.661L27 376.661L44 357.661L59.5 367.661L73.5 353.161L77 337.661L94.5 335.661L97.5 333.161H106L101.5 342.661L93.5 347.661L63.5 376.661C61.6667 378.494 59.1 382.361 63.5 383.161C67.9 383.961 80.6667 399.161 86.5 406.661L94.5 399.161V392.161L97.5 386.661L106 388.161V384.661V376.661L110 353.161L124.5 345.661L131.5 354.661L134.5 352.161V344.661L152.5 326.161L153.5 318.661C158.667 316.328 170.2 311.061 175 308.661C181 305.661 183.5 299.161 187 293.661C190.5 288.161 194 287.661 199.5 281.661C205 275.661 210.5 271.661 212.5 268.661C214.1 266.261 221.167 263.994 224.5 263.161C222.5 260.161 223.5 252.661 217.5 248.661C211.612 244.736 196.574 246.107 190.818 246.632L190.5 246.661C185 247.161 160 243.161 154.5 244.161C149 245.161 140.5 251.161 134.5 254.161C128.5 257.161 115.5 269.161 104.5 275.661C93.5 282.161 85 292.161 77 299.661C70.6 305.661 44.3333 323.161 32 331.161L26 339.161Z" fill="#3F4B85"/>
<path d="M-2.5 444.661V408.161L30 402.661L37.5 415.161L55.5 430.161L85.5 412.661L86 406.661L94 399.161L104.5 406.661L110.5 403.661L119 402.661L132.5 403.661H137L143.5 399.161L144.5 403.661L139 410.161L129.5 411.161L122.5 413.161L119.5 417.661L115 418.161L113 410.161L103 414.161L97 419.161L85.5 445.661V454.661L79 462.161L80 459.161L79.5 454.661L82.5 445.661L78 454.661V465.161L72.5 473.661L74.5 476.661L72 483.161L84 465.161L89.5 463.661L87 466.661L72.5 485.161L63 491.161H60.5L70 480.661L68.5 481.161L56.5 492.161L55 491.661L58 486.661L48.5 495.661L48 494.161L56.5 486.161L65.5 479.661V475.661L71.5 464.161V452.661L76.5 443.661L79.5 435.661L64.5 445.161L30 459.661L34 452.161L33 449.161V440.161L40 433.661L38 425.161L14.5 423.161L-2.5 444.661Z" fill="#353C6A"/>
<path d="M20 385.113L16 377.161L41 358.661L23.5 350.161V340.661L-4.5 357.661V392.161L20 385.113Z" fill="#353865"/>
<path d="M106.5 393.161L94.5 399.161L105 409.661L125 403.161L146.5 370.161L148 361.661L157 349.661H153L146.5 354.161L123 376.161L106.5 393.161Z" fill="#3F4B85"/>
<path d="M41 330.661C37.4 333.461 31.8333 338.494 29.5 340.661C31.6667 341.494 37 343.661 41 345.661C45 347.661 58.3333 357.828 64.5 362.661L73.5 353.661L77 337.161C75 336.994 69.7 336.161 64.5 334.161C59.3 332.161 52.6667 328.328 50 326.661C48.5 326.828 44.6 327.861 41 330.661Z" fill="#343865"/>
<path d="M73.5 366.661L60.5 381.661C61.3333 381.828 63.9 382.761 67.5 385.161C71.1 387.561 81.6667 400.494 86.5 406.661L94.5 399.161L94 392.661L98 387.161L106 388.661L107.5 365.161L102.5 375.161L83 372.161L77.5 375.161L73.5 366.661Z" fill="#343865"/>
<path d="M18 384.661C11.2 387.061 1.16667 391.328 -3 393.161V410.161L4.5 409.161L11.5 406.161L8.5 410.661L16 410.161L29 405.161L30.5 411.161L38 417.161V409.161L66 394.161L86.5 405.661L68.5 384.661C65 383.328 57 380.461 53 379.661C48 378.661 44 380.161 43 380.161C42 380.161 26.5 381.661 18 384.661Z" fill="#464883"/>
<path d="M70.5 513.292C58.3144 511.519 45 528.293 42.5 527.792C40 527.292 28.7868 534.801 20 539.292L-17 571.292V670.292C-17 670.292 12 692.292 5 670.292C-2 648.292 -12.5 654.792 -12.5 654.792L12 630.792L20 614.292L52 593.292V605.792L79 580.792V571.292L87 560.792V522.292C87 522.292 77.7634 514.349 70.5 513.292Z" fill="#3F4B85"/>
<path d="M13 594.292L5 601.792L10.5 619.292L-15 652.792V660.292L13 637.292L19 619.292L43 601.792V613.792V624.292L53.5 608.292L74.5 585.792V576.292L63 582.792L49 592.292L29.5 588.292L13 594.292Z" fill="#353C6A"/>
<path d="M15 630.537C15 633.037 -15 658.537 -15 658.537L-0.5 671.537C-0.5 671.537 -3.63846 678.955 -0.5 680.037C7.5 682.792 38 676.037 38 676.037V671.537L18 665.537C18 665.537 2.84691 668.745 3.5 663.037C3.95752 659.037 11.5 656.537 11.5 656.537L62.5 635.537L86 619.537L100 614L92 607.537L86 601.037L88.5 575.537L87 531.793C87 531.793 80 530.037 80 541.037V569.037C80 569.037 73 572.217 73 575.537V584.037C73 584.037 48.5 604.292 45.5 609.292C42.5 614.292 44 596.537 44 596.537L15 619.537V630.537Z" fill="#150F11"/>
<path d="M62 541.67C62 541.67 67.2448 532.433 73 531.67C76.1511 531.253 79.0571 530.655 81 533.17C83.0429 535.816 80 541.67 80 541.67C80 541.67 78.5237 537.93 76.5 536.67C71.658 533.657 65 545.67 65 545.67C65 545.67 60.6525 556.5 54.5 558.17C51.6734 558.938 47 558.17 47 558.17C47 558.17 45 557.67 44 558.17C43 558.67 41.1479 561.061 39 560.67C28 558.67 6 568.17 6 568.17C6 568.17 17.1304 561.065 25 558.17C35.9666 554.137 45.8815 561.06 54.5 553.17C58.4547 549.55 62 541.67 62 541.67Z" fill="#353C6A"/>
<circle cx="52.5" cy="54.5" r="3.5" fill="#FAFFFE" fill-opacity="0.7"/>
<circle cx="304.5" cy="170.5" r="3.5" fill="#FAFFFE" fill-opacity="0.7"/>
<circle cx="351.5" cy="64.5" r="3.5" fill="#FAFFFE" fill-opacity="0.7"/>
<circle cx="278.5" cy="52.5" r="1.5" fill="#FAFFFE" fill-opacity="0.7"/>
<circle cx="207.5" cy="128.5" r="1.5" fill="#FAFFFE" fill-opacity="0.7"/>
<circle cx="130.5" cy="145.5" r="1.5" fill="#FAFFFE" fill-opacity="0.7"/>
<circle cx="54.5" cy="175.5" r="1.5" fill="#FAFFFE" fill-opacity="0.7"/>
<circle cx="36.5" cy="158.5" r="1.5" fill="#FAFFFE" fill-opacity="0.7"/>
<circle cx="7.5" cy="36.5" r="1.5" fill="#FAFFFE" fill-opacity="0.7"/>
<circle cx="80.5" cy="59.5" r="1.5" fill="#FAFFFE" fill-opacity="0.7"/>
<circle cx="315.5" cy="237.5" r="1.5" fill="#FAFFFE" fill-opacity="0.7"/>
</g>
<defs>
<filter id="filter0_f_111_1899" x="43.7" y="421.7" width="219.6" height="221.6" filterUnits="userSpaceOnUse" color-interpolation-filters="sRGB">
<feFlood flood-opacity="0" result="BackgroundImageFix"/>
<feBlend mode="normal" in="SourceGraphic" in2="BackgroundImageFix" result="shape"/>
<feGaussianBlur stdDeviation="13.15" result="effect1_foregroundBlur_111_1899"/>
</filter>
<filter id="filter1_f_111_1899" x="40.7" y="465.7" width="177.6" height="178.6" filterUnits="userSpaceOnUse" color-interpolation-filters="sRGB">
<feFlood flood-opacity="0" result="BackgroundImageFix"/>
<feBlend mode="normal" in="SourceGraphic" in2="BackgroundImageFix" result="shape"/>
<feGaussianBlur stdDeviation="13.15" result="effect1_foregroundBlur_111_1899"/>
</filter>
<filter id="filter2_f_111_1899" x="61.7" y="493.7" width="149.6" height="150.6" filterUnits="userSpaceOnUse" color-interpolation-filters="sRGB">
<feFlood flood-opacity="0" result="BackgroundImageFix"/>
<feBlend mode="normal" in="SourceGraphic" in2="BackgroundImageFix" result="shape"/>
<feGaussianBlur stdDeviation="13.15" result="effect1_foregroundBlur_111_1899"/>
</filter>
<filter id="filter3_f_111_1899" x="19.7" y="504.7" width="137.6" height="138.6" filterUnits="userSpaceOnUse" color-interpolation-filters="sRGB">
<feFlood flood-opacity="0" result="BackgroundImageFix"/>
<feBlend mode="normal" in="SourceGraphic" in2="BackgroundImageFix" result="shape"/>
<feGaussianBlur stdDeviation="13.15" result="effect1_foregroundBlur_111_1899"/>
</filter>
<filter id="filter4_f_111_1899" x="19.7" y="504.7" width="137.6" height="138.6" filterUnits="userSpaceOnUse" color-interpolation-filters="sRGB">
<feFlood flood-opacity="0" result="BackgroundImageFix"/>
<feBlend mode="normal" in="SourceGraphic" in2="BackgroundImageFix" result="shape"/>
<feGaussianBlur stdDeviation="13.15" result="effect1_foregroundBlur_111_1899"/>
</filter>
<filter id="filter5_f_111_1899" x="19.7" y="504.7" width="137.6" height="138.6" filterUnits="userSpaceOnUse" color-interpolation-filters="sRGB">
<feFlood flood-opacity="0" result="BackgroundImageFix"/>
<feBlend mode="normal" in="SourceGraphic" in2="BackgroundImageFix" result="shape"/>
<feGaussianBlur stdDeviation="13.15" result="effect1_foregroundBlur_111_1899"/>
</filter>
<filter id="filter6_f_111_1899" x="19.7" y="504.7" width="137.6" height="138.6" filterUnits="userSpaceOnUse" color-interpolation-filters="sRGB">
<feFlood flood-opacity="0" result="BackgroundImageFix"/>
<feBlend mode="normal" in="SourceGraphic" in2="BackgroundImageFix" result="shape"/>
<feGaussianBlur stdDeviation="13.15" result="effect1_foregroundBlur_111_1899"/>
</filter>
<filter id="filter7_f_111_1899" x="19.7" y="504.7" width="137.6" height="138.6" filterUnits="userSpaceOnUse" color-interpolation-filters="sRGB">
<feFlood flood-opacity="0" result="BackgroundImageFix"/>
<feBlend mode="normal" in="SourceGraphic" in2="BackgroundImageFix" result="shape"/>
<feGaussianBlur stdDeviation="13.15" result="effect1_foregroundBlur_111_1899"/>
</filter>
<linearGradient id="paint0_linear_111_1899" x1="187.5" y1="160" x2="187.5" y2="812" gradientUnits="userSpaceOnUse">
<stop stop-color="#0A0A0A"/>
<stop offset="1" stop-color="#4D61FE"/>
</linearGradient>
<clipPath id="clip0_111_1899">
<rect width="375" height="812" fill="white"/>
</clipPath>
</defs>
</svg>
