<svg width="290" height="43" viewBox="0 0 290 43" fill="none" xmlns="http://www.w3.org/2000/svg">
<rect x="12" y="11" width="267" height="2" rx="1" fill="#E3E1EA"/>
<circle cx="11.5" cy="11.5" r="11.5" fill="#DDDDFF"/>
<circle cx="11.5" cy="11.5" r="7.1875" fill="#A9ABFE"/>
<path d="M7.82211 39.1367C7.02914 39.1367 6.34783 38.9385 5.77816 38.542C5.21306 38.141 4.77784 37.5599 4.4725 36.7988C4.17172 36.0378 4.02133 35.1217 4.02133 34.0508C4.02133 32.9844 4.17172 32.0706 4.4725 31.3096C4.77784 30.5439 5.21534 29.9629 5.785 29.5664C6.35466 29.1654 7.0337 28.9648 7.82211 28.9648C8.60596 28.9648 9.28272 29.1654 9.85238 29.5664C10.4266 29.9629 10.8641 30.5439 11.1649 31.3096C11.4702 32.0706 11.6229 32.9844 11.6229 34.0508C11.6229 35.1217 11.4702 36.0378 11.1649 36.7988C10.8641 37.5599 10.4289 38.141 9.85922 38.542C9.29411 38.9385 8.61508 39.1367 7.82211 39.1367ZM7.82211 37.6465C8.24138 37.6465 8.59913 37.512 8.89535 37.2432C9.19613 36.9697 9.42628 36.5664 9.58578 36.0332C9.74984 35.4954 9.83187 34.8346 9.83187 34.0508C9.83187 33.276 9.74984 32.6198 9.58578 32.082C9.42628 31.5397 9.19613 31.1318 8.89535 30.8584C8.59457 30.5804 8.23682 30.4414 7.82211 30.4414C7.4074 30.4414 7.04965 30.5804 6.74887 30.8584C6.44809 31.1318 6.21566 31.5397 6.0516 32.082C5.8921 32.6198 5.81234 33.276 5.81234 34.0508C5.81234 34.8346 5.8921 35.4954 6.0516 36.0332C6.21566 36.5664 6.44581 36.9697 6.74203 37.2432C7.04281 37.512 7.40284 37.6465 7.82211 37.6465ZM17.0627 39H15.2716V30.8379H15.217L12.9064 32.3145V30.6875L15.3537 29.1016H17.0627V39Z" fill="#A9ABFE"/>
<circle cx="146" cy="12" r="5" fill="#E3E1EA"/>
<path d="M141.817 39.1367C141.024 39.1367 140.343 38.9385 139.773 38.542C139.208 38.141 138.773 37.5599 138.468 36.7988C138.167 36.0378 138.016 35.1217 138.016 34.0508C138.016 32.9844 138.167 32.0706 138.468 31.3096C138.773 30.5439 139.21 29.9629 139.78 29.5664C140.35 29.1654 141.029 28.9648 141.817 28.9648C142.601 28.9648 143.278 29.1654 143.847 29.5664C144.422 29.9629 144.859 30.5439 145.16 31.3096C145.465 32.0706 145.618 32.9844 145.618 34.0508C145.618 35.1217 145.465 36.0378 145.16 36.7988C144.859 37.5599 144.424 38.141 143.854 38.542C143.289 38.9385 142.61 39.1367 141.817 39.1367ZM141.817 37.6465C142.236 37.6465 142.594 37.512 142.89 37.2432C143.191 36.9697 143.421 36.5664 143.581 36.0332C143.745 35.4954 143.827 34.8346 143.827 34.0508C143.827 33.276 143.745 32.6198 143.581 32.082C143.421 31.5397 143.191 31.1318 142.89 30.8584C142.59 30.5804 142.232 30.4414 141.817 30.4414C141.403 30.4414 141.045 30.5804 140.744 30.8584C140.443 31.1318 140.211 31.5397 140.047 32.082C139.887 32.6198 139.807 33.276 139.807 34.0508C139.807 34.8346 139.887 35.4954 140.047 36.0332C140.211 36.5664 140.441 36.9697 140.737 37.2432C141.038 37.512 141.398 37.6465 141.817 37.6465ZM147.038 37.7148L150.538 34.3379C150.916 33.9596 151.208 33.6497 151.413 33.4082C151.623 33.1621 151.782 32.9206 151.892 32.6836C152.001 32.4421 152.056 32.1868 152.056 31.918C152.056 31.6172 151.983 31.3529 151.837 31.125C151.691 30.8971 151.488 30.7217 151.229 30.5986C150.973 30.4756 150.684 30.4141 150.361 30.4141C150.023 30.4141 149.727 30.4824 149.472 30.6191C149.221 30.7513 149.028 30.9427 148.891 31.1934C148.754 31.4395 148.688 31.7266 148.693 32.0547H146.997C146.993 31.4395 147.134 30.8994 147.421 30.4346C147.708 29.9652 148.107 29.6029 148.617 29.3477C149.132 29.0924 149.718 28.9648 150.374 28.9648C151.04 28.9648 151.627 29.0879 152.138 29.334C152.653 29.5801 153.052 29.9219 153.334 30.3594C153.621 30.7923 153.765 31.2845 153.765 31.8359C153.765 32.2188 153.69 32.5879 153.539 32.9434C153.393 33.2988 153.143 33.693 152.787 34.126C152.432 34.5544 151.928 35.0762 151.277 35.6914L149.513 37.4414V37.5098H153.915V39H147.038V37.7148Z" fill="#E3E1EA"/>
<circle cx="279" cy="12" r="5" fill="#E3E1EA"/>
<path d="M276.612 39.1367C275.819 39.1367 275.138 38.9385 274.568 38.542C274.003 38.141 273.568 37.5599 273.263 36.7988C272.962 36.0378 272.811 35.1217 272.811 34.0508C272.811 32.9844 272.962 32.0706 273.263 31.3096C273.568 30.5439 274.005 29.9629 274.575 29.5664C275.145 29.1654 275.824 28.9648 276.612 28.9648C277.396 28.9648 278.073 29.1654 278.642 29.5664C279.217 29.9629 279.654 30.5439 279.955 31.3096C280.26 32.0706 280.413 32.9844 280.413 34.0508C280.413 35.1217 280.26 36.0378 279.955 36.7988C279.654 37.5599 279.219 38.141 278.649 38.542C278.084 38.9385 277.405 39.1367 276.612 39.1367ZM276.612 37.6465C277.031 37.6465 277.389 37.512 277.685 37.2432C277.986 36.9697 278.216 36.5664 278.376 36.0332C278.54 35.4954 278.622 34.8346 278.622 34.0508C278.622 33.276 278.54 32.6198 278.376 32.082C278.216 31.5397 277.986 31.1318 277.685 30.8584C277.385 30.5804 277.027 30.4414 276.612 30.4414C276.197 30.4414 275.84 30.5804 275.539 30.8584C275.238 31.1318 275.006 31.5397 274.842 32.082C274.682 32.6198 274.602 33.276 274.602 34.0508C274.602 34.8346 274.682 35.4954 274.842 36.0332C275.006 36.5664 275.236 36.9697 275.532 37.2432C275.833 37.512 276.193 37.6465 276.612 37.6465ZM285.429 39.1367C284.732 39.1367 284.107 39.0182 283.556 38.7812C283.004 38.5443 282.571 38.2139 282.257 37.79C281.943 37.3617 281.778 36.8717 281.765 36.3203H283.556C283.574 36.5801 283.665 36.8102 283.829 37.0107C283.998 37.2067 284.221 37.3594 284.499 37.4688C284.777 37.5781 285.087 37.6328 285.429 37.6328C285.789 37.6328 286.11 37.5713 286.393 37.4482C286.68 37.3206 286.903 37.1452 287.063 36.9219C287.222 36.6986 287.302 36.4434 287.302 36.1562C287.302 35.86 287.22 35.5957 287.056 35.3633C286.892 35.1309 286.655 34.9508 286.345 34.8232C286.035 34.6911 285.67 34.625 285.251 34.625H284.362V33.2578H285.251C285.597 33.2578 285.905 33.1986 286.174 33.0801C286.447 32.957 286.659 32.7861 286.81 32.5674C286.96 32.3441 287.033 32.0911 287.028 31.8086C287.033 31.5352 286.969 31.2936 286.837 31.084C286.709 30.8698 286.525 30.7057 286.283 30.5918C286.042 30.4733 285.762 30.4141 285.443 30.4141C285.133 30.4141 284.843 30.471 284.574 30.585C284.31 30.6943 284.096 30.8516 283.932 31.0566C283.772 31.2617 283.688 31.4987 283.679 31.7676H281.97C281.984 31.2207 282.143 30.7354 282.448 30.3115C282.758 29.8877 283.175 29.5573 283.699 29.3203C284.228 29.0833 284.814 28.9648 285.456 28.9648C286.108 28.9648 286.684 29.0879 287.186 29.334C287.687 29.5755 288.074 29.9059 288.348 30.3252C288.621 30.7445 288.756 31.207 288.751 31.7129C288.756 32.0775 288.683 32.4079 288.532 32.7041C288.382 33.0003 288.17 33.2464 287.897 33.4424C287.623 33.6383 287.306 33.7728 286.946 33.8457V33.9277C287.407 33.9915 287.801 34.1283 288.129 34.3379C288.457 34.543 288.706 34.8096 288.874 35.1377C289.043 35.4658 289.125 35.8372 289.12 36.252C289.125 36.7988 288.968 37.2933 288.649 37.7354C288.334 38.1729 287.894 38.5169 287.329 38.7676C286.769 39.0137 286.135 39.1367 285.429 39.1367Z" fill="#E3E1EA"/>
</svg>
