<svg width="236" height="240" viewBox="0 0 236 240" fill="none" xmlns="http://www.w3.org/2000/svg">
<g filter="url(#filter0_i_111_2253)">
<path d="M204.011 101.006C208.213 173.79 158.932 194.748 108.122 192.081C70.7777 192.081 40.5039 161.883 40.5039 124.632C40.5039 62.8998 99.0476 33.5578 136.392 33.5578C173.737 33.5578 204.011 63.7555 204.011 101.006Z" fill="url(#paint0_radial_111_2253)" fill-opacity="0.24"/>
</g>
<g filter="url(#filter1_i_111_2253)">
<path d="M152.547 36.2513C217.839 69.0129 211.395 122.064 183.674 164.622C165.002 196.882 123.647 207.935 91.3057 189.309C37.7091 158.443 41.506 93.1993 60.1783 60.9392C78.8506 28.6791 120.205 17.626 152.547 36.2513Z" fill="url(#paint1_radial_111_2253)" fill-opacity="0.17"/>
</g>
<g filter="url(#filter2_i_111_2253)">
<path d="M192.103 177.6C136.551 224.513 76.8534 200.975 49.1082 159.862C27.1526 130.82 26.8526 74.9485 56.549 52.611C105.762 15.593 170.148 57.7462 192.103 86.7883C214.059 115.83 221.8 155.263 192.103 177.6Z" fill="url(#paint2_radial_111_2253)" fill-opacity="0.16"/>
</g>
<defs>
<filter id="filter0_i_111_2253" x="40.5039" y="33.5578" width="163.758" height="158.744" filterUnits="userSpaceOnUse" color-interpolation-filters="sRGB">
<feFlood flood-opacity="0" result="BackgroundImageFix"/>
<feBlend mode="normal" in="SourceGraphic" in2="BackgroundImageFix" result="shape"/>
<feColorMatrix in="SourceAlpha" type="matrix" values="0 0 0 0 0 0 0 0 0 0 0 0 0 0 0 0 0 0 127 0" result="hardAlpha"/>
<feOffset/>
<feGaussianBlur stdDeviation="6.85"/>
<feComposite in2="hardAlpha" operator="arithmetic" k2="-1" k3="1"/>
<feColorMatrix type="matrix" values="0 0 0 0 1 0 0 0 0 1 0 0 0 0 1 0 0 0 1 0"/>
<feBlend mode="normal" in2="shape" result="effect1_innerShadow_111_2253"/>
</filter>
<filter id="filter1_i_111_2253" x="47.6328" y="27.2037" width="155.987" height="171.153" filterUnits="userSpaceOnUse" color-interpolation-filters="sRGB">
<feFlood flood-opacity="0" result="BackgroundImageFix"/>
<feBlend mode="normal" in="SourceGraphic" in2="BackgroundImageFix" result="shape"/>
<feColorMatrix in="SourceAlpha" type="matrix" values="0 0 0 0 0 0 0 0 0 0 0 0 0 0 0 0 0 0 127 0" result="hardAlpha"/>
<feOffset/>
<feGaussianBlur stdDeviation="6.85"/>
<feComposite in2="hardAlpha" operator="arithmetic" k2="-1" k3="1"/>
<feColorMatrix type="matrix" values="0 0 0 0 1 0 0 0 0 1 0 0 0 0 1 0 0 0 1 0"/>
<feBlend mode="normal" in2="shape" result="effect1_innerShadow_111_2253"/>
</filter>
<filter id="filter2_i_111_2253" x="33.3662" y="38.111" width="178.214" height="165.367" filterUnits="userSpaceOnUse" color-interpolation-filters="sRGB">
<feFlood flood-opacity="0" result="BackgroundImageFix"/>
<feBlend mode="normal" in="SourceGraphic" in2="BackgroundImageFix" result="shape"/>
<feColorMatrix in="SourceAlpha" type="matrix" values="0 0 0 0 0 0 0 0 0 0 0 0 0 0 0 0 0 0 127 0" result="hardAlpha"/>
<feOffset/>
<feGaussianBlur stdDeviation="6.85"/>
<feComposite in2="hardAlpha" operator="arithmetic" k2="-1" k3="1"/>
<feColorMatrix type="matrix" values="0 0 0 0 1 0 0 0 0 1 0 0 0 0 1 0 0 0 1 0"/>
<feBlend mode="normal" in2="shape" result="effect1_innerShadow_111_2253"/>
</filter>
<radialGradient id="paint0_radial_111_2253" cx="0" cy="0" r="1" gradientUnits="userSpaceOnUse" gradientTransform="translate(122.383 112.93) rotate(90) scale(79.372 81.8788)">
<stop/>
<stop offset="1" stop-color="#4D65FE"/>
</radialGradient>
<radialGradient id="paint1_radial_111_2253" cx="0" cy="0" r="1" gradientTransform="matrix(-40.9394 70.7309 -68.9114 -39.686 122.085 112.727)" gradientUnits="userSpaceOnUse">
<stop/>
<stop offset="1" stop-color="#B0FDEB"/>
</radialGradient>
<radialGradient id="paint2_radial_111_2253" cx="0" cy="0" r="1" gradientTransform="matrix(54.7538 72.4265 -63.2462 47.5735 118 120)" gradientUnits="userSpaceOnUse">
<stop/>
<stop offset="1" stop-color="#D640EA"/>
</radialGradient>
</defs>
</svg>
