<svg width="289" height="43" viewBox="0 0 289 43" fill="none" xmlns="http://www.w3.org/2000/svg">
<rect x="11" y="11" width="267" height="2" rx="1" fill="#E3E1EA"/>
<circle cx="142.5" cy="11.5" r="11.5" fill="#DDDDFF"/>
<circle cx="142.5" cy="11.5" r="7.1875" fill="#A9ABFE"/>
<path d="M137.817 39.1367C137.024 39.1367 136.343 38.9385 135.773 38.542C135.208 38.141 134.773 37.5599 134.468 36.7988C134.167 36.0378 134.016 35.1217 134.016 34.0508C134.016 32.9844 134.167 32.0706 134.468 31.3096C134.773 30.5439 135.21 29.9629 135.78 29.5664C136.35 29.1654 137.029 28.9648 137.817 28.9648C138.601 28.9648 139.278 29.1654 139.847 29.5664C140.422 29.9629 140.859 30.5439 141.16 31.3096C141.465 32.0706 141.618 32.9844 141.618 34.0508C141.618 35.1217 141.465 36.0378 141.16 36.7988C140.859 37.5599 140.424 38.141 139.854 38.542C139.289 38.9385 138.61 39.1367 137.817 39.1367ZM137.817 37.6465C138.236 37.6465 138.594 37.512 138.89 37.2432C139.191 36.9697 139.421 36.5664 139.581 36.0332C139.745 35.4954 139.827 34.8346 139.827 34.0508C139.827 33.276 139.745 32.6198 139.581 32.082C139.421 31.5397 139.191 31.1318 138.89 30.8584C138.59 30.5804 138.232 30.4414 137.817 30.4414C137.403 30.4414 137.045 30.5804 136.744 30.8584C136.443 31.1318 136.211 31.5397 136.047 32.082C135.887 32.6198 135.807 33.276 135.807 34.0508C135.807 34.8346 135.887 35.4954 136.047 36.0332C136.211 36.5664 136.441 36.9697 136.737 37.2432C137.038 37.512 137.398 37.6465 137.817 37.6465ZM143.038 37.7148L146.538 34.3379C146.916 33.9596 147.208 33.6497 147.413 33.4082C147.623 33.1621 147.782 32.9206 147.892 32.6836C148.001 32.4421 148.056 32.1868 148.056 31.918C148.056 31.6172 147.983 31.3529 147.837 31.125C147.691 30.8971 147.488 30.7217 147.229 30.5986C146.973 30.4756 146.684 30.4141 146.361 30.4141C146.023 30.4141 145.727 30.4824 145.472 30.6191C145.221 30.7513 145.028 30.9427 144.891 31.1934C144.754 31.4395 144.688 31.7266 144.693 32.0547H142.997C142.993 31.4395 143.134 30.8994 143.421 30.4346C143.708 29.9652 144.107 29.6029 144.617 29.3477C145.132 29.0924 145.718 28.9648 146.374 28.9648C147.04 28.9648 147.627 29.0879 148.138 29.334C148.653 29.5801 149.052 29.9219 149.334 30.3594C149.621 30.7923 149.765 31.2845 149.765 31.8359C149.765 32.2188 149.69 32.5879 149.539 32.9434C149.393 33.2988 149.143 33.693 148.787 34.126C148.432 34.5544 147.928 35.0762 147.277 35.6914L145.513 37.4414V37.5098H149.915V39H143.038V37.7148Z" fill="#A9ABFE"/>
<circle cx="8" cy="12" r="5" fill="#E3E1EA"/>
<path d="M4.82211 39.1367C4.02914 39.1367 3.34783 38.9385 2.77816 38.542C2.21306 38.141 1.77784 37.5599 1.4725 36.7988C1.17172 36.0378 1.02133 35.1217 1.02133 34.0508C1.02133 32.9844 1.17172 32.0706 1.4725 31.3096C1.77784 30.5439 2.21534 29.9629 2.785 29.5664C3.35466 29.1654 4.0337 28.9648 4.82211 28.9648C5.60596 28.9648 6.28272 29.1654 6.85238 29.5664C7.4266 29.9629 7.8641 30.5439 8.16488 31.3096C8.47022 32.0706 8.62289 32.9844 8.62289 34.0508C8.62289 35.1217 8.47022 36.0378 8.16488 36.7988C7.8641 37.5599 7.42888 38.141 6.85922 38.542C6.29411 38.9385 5.61508 39.1367 4.82211 39.1367ZM4.82211 37.6465C5.24138 37.6465 5.59913 37.512 5.89535 37.2432C6.19613 36.9697 6.42628 36.5664 6.58578 36.0332C6.74984 35.4954 6.83187 34.8346 6.83187 34.0508C6.83187 33.276 6.74984 32.6198 6.58578 32.082C6.42628 31.5397 6.19613 31.1318 5.89535 30.8584C5.59457 30.5804 5.23682 30.4414 4.82211 30.4414C4.4074 30.4414 4.04965 30.5804 3.74887 30.8584C3.44809 31.1318 3.21566 31.5397 3.0516 32.082C2.8921 32.6198 2.81234 33.276 2.81234 34.0508C2.81234 34.8346 2.8921 35.4954 3.0516 36.0332C3.21566 36.5664 3.44581 36.9697 3.74203 37.2432C4.04281 37.512 4.40284 37.6465 4.82211 37.6465ZM14.0627 39H12.2716V30.8379H12.217L9.90641 32.3145V30.6875L12.3537 29.1016H14.0627V39Z" fill="#E3E1EA"/>
<circle cx="278" cy="12" r="5" fill="#E3E1EA"/>
<path d="M275.612 39.1367C274.819 39.1367 274.138 38.9385 273.568 38.542C273.003 38.141 272.568 37.5599 272.263 36.7988C271.962 36.0378 271.811 35.1217 271.811 34.0508C271.811 32.9844 271.962 32.0706 272.263 31.3096C272.568 30.5439 273.005 29.9629 273.575 29.5664C274.145 29.1654 274.824 28.9648 275.612 28.9648C276.396 28.9648 277.073 29.1654 277.642 29.5664C278.217 29.9629 278.654 30.5439 278.955 31.3096C279.26 32.0706 279.413 32.9844 279.413 34.0508C279.413 35.1217 279.26 36.0378 278.955 36.7988C278.654 37.5599 278.219 38.141 277.649 38.542C277.084 38.9385 276.405 39.1367 275.612 39.1367ZM275.612 37.6465C276.031 37.6465 276.389 37.512 276.685 37.2432C276.986 36.9697 277.216 36.5664 277.376 36.0332C277.54 35.4954 277.622 34.8346 277.622 34.0508C277.622 33.276 277.54 32.6198 277.376 32.082C277.216 31.5397 276.986 31.1318 276.685 30.8584C276.385 30.5804 276.027 30.4414 275.612 30.4414C275.197 30.4414 274.84 30.5804 274.539 30.8584C274.238 31.1318 274.006 31.5397 273.842 32.082C273.682 32.6198 273.602 33.276 273.602 34.0508C273.602 34.8346 273.682 35.4954 273.842 36.0332C274.006 36.5664 274.236 36.9697 274.532 37.2432C274.833 37.512 275.193 37.6465 275.612 37.6465ZM284.429 39.1367C283.732 39.1367 283.107 39.0182 282.556 38.7812C282.004 38.5443 281.571 38.2139 281.257 37.79C280.943 37.3617 280.778 36.8717 280.765 36.3203H282.556C282.574 36.5801 282.665 36.8102 282.829 37.0107C282.998 37.2067 283.221 37.3594 283.499 37.4688C283.777 37.5781 284.087 37.6328 284.429 37.6328C284.789 37.6328 285.11 37.5713 285.393 37.4482C285.68 37.3206 285.903 37.1452 286.063 36.9219C286.222 36.6986 286.302 36.4434 286.302 36.1562C286.302 35.86 286.22 35.5957 286.056 35.3633C285.892 35.1309 285.655 34.9508 285.345 34.8232C285.035 34.6911 284.67 34.625 284.251 34.625H283.362V33.2578H284.251C284.597 33.2578 284.905 33.1986 285.174 33.0801C285.447 32.957 285.659 32.7861 285.81 32.5674C285.96 32.3441 286.033 32.0911 286.028 31.8086C286.033 31.5352 285.969 31.2936 285.837 31.084C285.709 30.8698 285.525 30.7057 285.283 30.5918C285.042 30.4733 284.762 30.4141 284.443 30.4141C284.133 30.4141 283.843 30.471 283.574 30.585C283.31 30.6943 283.096 30.8516 282.932 31.0566C282.772 31.2617 282.688 31.4987 282.679 31.7676H280.97C280.984 31.2207 281.143 30.7354 281.448 30.3115C281.758 29.8877 282.175 29.5573 282.699 29.3203C283.228 29.0833 283.814 28.9648 284.456 28.9648C285.108 28.9648 285.684 29.0879 286.186 29.334C286.687 29.5755 287.074 29.9059 287.348 30.3252C287.621 30.7445 287.756 31.207 287.751 31.7129C287.756 32.0775 287.683 32.4079 287.532 32.7041C287.382 33.0003 287.17 33.2464 286.897 33.4424C286.623 33.6383 286.306 33.7728 285.946 33.8457V33.9277C286.407 33.9915 286.801 34.1283 287.129 34.3379C287.457 34.543 287.706 34.8096 287.874 35.1377C288.043 35.4658 288.125 35.8372 288.12 36.252C288.125 36.7988 287.968 37.2933 287.649 37.7354C287.334 38.1729 286.894 38.5169 286.329 38.7676C285.769 39.0137 285.135 39.1367 284.429 39.1367Z" fill="#E3E1EA"/>
</svg>
